<svg width="15" height="14" viewBox="0 0 15 14" fill="none" xmlns="http://www.w3.org/2000/svg">
<path fill-rule="evenodd" clip-rule="evenodd" d="M0.341584 0.35617C0.560367 0.137454 0.857059 0.0145854 1.16642 0.0145854C1.47578 0.0145854 1.77247 0.137454 1.99125 0.35617L6.99975 5.36467L12.0083 0.35617C12.1159 0.244741 12.2446 0.155862 12.3869 0.094718C12.5293 0.0335742 12.6824 0.00139017 12.8373 4.40499e-05C12.9922 -0.00130207 13.1458 0.0282163 13.2892 0.0868774C13.4326 0.145538 13.5628 0.232167 13.6724 0.341709C13.7819 0.45125 13.8685 0.581511 13.9272 0.72489C13.9859 0.868269 14.0154 1.0219 14.014 1.1768C14.0127 1.33171 13.9805 1.4848 13.9194 1.62714C13.8582 1.76948 13.7693 1.89821 13.6579 2.00584L8.64942 7.01434L13.6579 12.0228C13.8704 12.2429 13.988 12.5376 13.9854 12.8435C13.9827 13.1494 13.86 13.442 13.6437 13.6583C13.4274 13.8746 13.1348 13.9973 12.8289 14C12.523 14.0026 12.2283 13.885 12.0083 13.6725L6.99975 8.664L1.99125 13.6725C1.77121 13.885 1.47651 14.0026 1.17062 14C0.86472 13.9973 0.572105 13.8746 0.355796 13.6583C0.139486 13.442 0.016789 13.1494 0.0141308 12.8435C0.0114727 12.5376 0.129067 12.2429 0.341584 12.0228L5.35008 7.01434L0.341584 2.00584C0.122868 1.78705 0 1.49036 0 1.181C0 0.871645 0.122868 0.574952 0.341584 0.35617Z" fill="black"/>
</svg>
