<svg width="114" height="34" viewBox="0 0 114 34" fill="none" xmlns="http://www.w3.org/2000/svg">
<path d="M23.1668 24.3803C22.3284 24.3803 21.6223 23.6963 21.6223 22.8359V17.8716L16.989 13.1499L12.3556 17.8716V22.8359C12.3556 23.6743 11.6716 24.3803 10.8112 24.3803C9.97275 24.3803 9.26671 23.6963 9.26671 22.8359V17.4744C9.26671 16.9228 9.48735 16.4154 9.86243 16.0182L15.5328 10.2375C15.9299 9.8404 16.4594 9.61977 16.989 9.61977C17.5406 9.61977 18.048 9.8404 18.4452 10.2375L24.1155 16.0182C24.4906 16.4154 24.7112 16.9228 24.7112 17.4744V22.8359C24.7112 23.6743 24.0273 24.3803 23.1668 24.3803Z" fill="black"/>
<path d="M25.9468 34H8.05321C3.61843 34 0 30.3816 0 25.9468V8.05321C0 3.61843 3.61843 0 8.05321 0H25.9689C30.4036 0 34.0221 3.61843 34.0221 8.05321V25.9689C34 30.3816 30.3816 34 25.9468 34ZM8.05321 3.06684C5.31733 3.06684 3.0889 5.29526 3.0889 8.03115V25.9468C3.0889 28.6827 5.31733 30.9111 8.05321 30.9111H25.9689C28.7047 30.9111 30.9332 28.6827 30.9332 25.9468V8.05321C30.9332 5.31733 28.7047 3.0889 25.9689 3.0889H8.05321V3.06684Z" fill="black"/>
<path d="M49.621 23.4463L48.915 21.615H43.002L42.2959 23.4904C42.0312 24.2185 41.7885 24.7039 41.5899 24.9686C41.3913 25.2334 41.0824 25.3437 40.6412 25.3437C40.2661 25.3437 39.9351 25.2113 39.6483 24.9466C39.3615 24.6818 39.2291 24.3729 39.2291 24.0199C39.2291 23.8213 39.2512 23.6228 39.3173 23.4021C39.3835 23.1815 39.4939 22.8947 39.6483 22.5196L43.377 13.0543C43.4874 12.7895 43.6197 12.4586 43.7521 12.0835C43.9066 11.7084 44.061 11.3775 44.2375 11.1348C44.414 10.8921 44.6347 10.6714 44.8994 10.517C45.1642 10.3625 45.5172 10.2743 45.9144 10.2743C46.3336 10.2743 46.6645 10.3625 46.9514 10.517C47.2161 10.6714 47.4588 10.87 47.6133 11.1127C47.7898 11.3554 47.9222 11.6202 48.0325 11.907C48.1428 12.1938 48.2972 12.5689 48.4737 13.0322L52.2687 22.4313C52.5776 23.1374 52.7099 23.6669 52.7099 23.9978C52.7099 24.3288 52.5776 24.6377 52.2907 24.9245C52.0039 25.2113 51.673 25.3437 51.2758 25.3437C51.0552 25.3437 50.8345 25.2996 50.6801 25.2113C50.5036 25.1231 50.3712 25.0128 50.2609 24.8804C50.1506 24.748 50.0182 24.5274 49.9079 24.2185C49.8196 23.9317 49.7093 23.6669 49.621 23.4463ZM43.7742 19.4086H48.1207L45.9144 13.4073L43.7742 19.4086Z" fill="black"/>
<path d="M58.8877 18.6143H57.8507V23.2918C57.8507 23.9096 57.7183 24.3509 57.4535 24.6598C57.1888 24.9466 56.8358 25.101 56.3945 25.101C55.9312 25.101 55.5561 24.9466 55.2913 24.6377C55.0265 24.3288 54.8942 23.8875 54.8942 23.2918V12.0835C54.8942 11.4437 55.0265 10.9803 55.3134 10.6935C55.6002 10.4067 56.0635 10.2743 56.7034 10.2743H61.4912C62.1531 10.2743 62.7267 10.2964 63.1901 10.3626C63.6534 10.4288 64.0726 10.5391 64.4698 10.7156C64.9331 10.9142 65.3303 11.1789 65.6833 11.5319C66.0363 11.8849 66.301 12.3042 66.4776 12.7675C66.6541 13.2308 66.7423 13.7383 66.7423 14.2678C66.7423 15.3489 66.4334 16.2315 65.8157 16.8713C65.1979 17.5112 64.2712 17.9745 63.0356 18.2613C63.5652 18.5482 64.0506 18.9453 64.536 19.4969C65.0214 20.0485 65.4406 20.6221 65.8157 21.2399C66.1907 21.8577 66.4776 22.4093 66.6982 22.8947C66.8968 23.3801 67.0071 23.7331 67.0071 23.9096C67.0071 24.1082 66.9409 24.2847 66.8306 24.4833C66.6982 24.6818 66.5437 24.8142 66.3231 24.9245C66.1025 25.0349 65.8598 25.079 65.595 25.079C65.2641 25.079 64.9772 24.9907 64.7566 24.8363C64.536 24.6818 64.3374 24.4833 64.1829 24.2406C64.0285 23.9979 63.8079 23.6448 63.521 23.1815L62.3296 21.2179C61.9104 20.4898 61.5353 19.9382 61.1823 19.5631C60.8513 19.188 60.4983 18.9232 60.1674 18.7909C59.8585 18.6805 59.4172 18.6143 58.8877 18.6143ZM60.5866 12.5027H57.8728V16.4962H60.5204C61.2264 16.4962 61.8221 16.4301 62.3075 16.3197C62.7929 16.1874 63.168 15.9888 63.4107 15.702C63.6755 15.4151 63.7858 14.9959 63.7858 14.4885C63.7858 14.0913 63.6755 13.7383 63.4769 13.4294C63.2783 13.1205 62.9915 12.8999 62.6164 12.7454C62.2855 12.5689 61.6015 12.5027 60.5866 12.5027Z" fill="black"/>
<path d="M81.7016 20.5118C81.7016 20.9751 81.5912 21.4826 81.3485 22.0121C81.1279 22.5417 80.7528 23.0712 80.2674 23.6007C79.782 24.1302 79.1422 24.5495 78.392 24.8583C77.6198 25.1893 76.7373 25.3437 75.7223 25.3437C74.9501 25.3437 74.2661 25.2776 73.6263 25.1231C72.9864 24.9687 72.4348 24.748 71.9053 24.4391C71.3979 24.1302 70.9125 23.7331 70.4933 23.2256C70.1182 22.7623 69.7872 22.2548 69.5004 21.6812C69.2356 21.1075 69.015 20.5118 68.8826 19.872C68.7502 19.2321 68.684 18.5482 68.684 17.8201C68.684 16.6507 68.8605 15.5916 69.1915 14.665C69.5225 13.7383 70.0299 12.944 70.6477 12.2821C71.2875 11.6202 72.0377 11.1127 72.8761 10.7818C73.7366 10.4288 74.6412 10.2743 75.612 10.2743C76.7814 10.2743 77.8404 10.517 78.7671 10.9803C79.6938 11.4437 80.3998 12.0394 80.8852 12.7234C81.3706 13.4073 81.6133 14.0692 81.6133 14.687C81.6133 15.018 81.503 15.3269 81.2603 15.5916C81.0176 15.8564 80.7308 15.9888 80.3998 15.9888C80.0247 15.9888 79.7379 15.9005 79.5614 15.724C79.4069 15.5475 79.1863 15.2386 78.9657 14.7973C78.5906 14.0692 78.1273 13.5397 77.5977 13.1867C77.0682 12.8337 76.4284 12.6572 75.6782 12.6572C74.4647 12.6572 73.4939 13.1205 72.7879 14.0472C72.0598 14.9739 71.7067 16.2756 71.7067 17.9745C71.7067 19.0997 71.8612 20.0485 72.1921 20.7986C72.501 21.5488 72.9644 22.1004 73.538 22.4755C74.1117 22.8506 74.7957 23.0271 75.5899 23.0271C76.4284 23.0271 77.1565 22.8064 77.7301 22.3872C78.3258 21.968 78.7671 21.3502 79.0539 20.5339C79.1863 20.1588 79.3408 19.8278 79.5173 19.5851C79.6938 19.3424 80.0027 19.2321 80.3998 19.2321C80.7528 19.2321 81.0617 19.3645 81.3044 19.6072C81.5912 19.8499 81.7016 20.1588 81.7016 20.5118Z" fill="black"/>
<path d="M87.2394 12.0615V22.652H93.2186C93.704 22.652 94.057 22.7623 94.3218 23.005C94.5865 23.2477 94.6969 23.5345 94.6969 23.8875C94.6969 24.2406 94.5645 24.5274 94.3218 24.748C94.0791 24.9687 93.704 25.079 93.2186 25.079H86.0921C85.4522 25.079 84.9889 24.9466 84.7021 24.6598C84.4152 24.3729 84.2828 23.9096 84.2828 23.2698V12.0615C84.2828 11.4657 84.4152 11.0245 84.68 10.7156C84.9447 10.4067 85.2978 10.2743 85.739 10.2743C86.1803 10.2743 86.5333 10.4288 86.8202 10.7156C87.107 11.0245 87.2394 11.4657 87.2394 12.0615Z" fill="black"/>
<path d="M96.7709 23.5345V12.0615C96.7709 11.4657 96.9032 11.0245 97.168 10.7156C97.4328 10.4067 97.7858 10.2743 98.227 10.2743C98.6683 10.2743 99.0213 10.4288 99.3082 10.7156C99.5729 11.0024 99.7274 11.4657 99.7274 12.0615V23.5345C99.7274 24.1302 99.595 24.5936 99.3082 24.8804C99.0434 25.1893 98.6683 25.3217 98.227 25.3217C97.8078 25.3217 97.4548 25.1672 97.1901 24.8804C96.9032 24.5936 96.7709 24.1302 96.7709 23.5345Z" fill="black"/>
<path d="M111.708 12.5689H105.905V16.2977H110.759C111.2 16.2977 111.553 16.408 111.774 16.6066C111.995 16.8051 112.105 17.0699 112.105 17.4229C112.105 17.7539 111.995 18.0186 111.774 18.2172C111.553 18.4158 111.223 18.5261 110.781 18.5261H105.927V23.3139C105.927 23.9317 105.795 24.3729 105.508 24.6598C105.243 24.9466 104.89 25.101 104.449 25.101C104.008 25.101 103.655 24.9466 103.39 24.6598C103.125 24.3509 102.971 23.9096 102.971 23.3139V12.0835C102.971 11.6643 103.037 11.3113 103.169 11.0465C103.302 10.7818 103.5 10.5832 103.765 10.4508C104.03 10.3184 104.383 10.2743 104.802 10.2743H111.752C112.215 10.2743 112.568 10.3846 112.811 10.5832C113.032 10.7818 113.164 11.0686 113.164 11.3996C113.164 11.7526 113.054 12.0173 112.811 12.238C112.546 12.4586 112.193 12.5689 111.708 12.5689Z" fill="black"/>
</svg>
