<svg width="374" height="283" viewBox="0 0 374 283" fill="none" xmlns="http://www.w3.org/2000/svg">
<path d="M57.9084 254.09C129.185 291.581 244.738 291.581 316.015 254.09C387.291 216.599 387.283 155.81 316.015 118.318C244.747 80.8274 129.185 80.8274 57.9084 118.318C-13.3681 155.81 -13.3596 216.616 57.9084 254.09Z" fill="#F5F5F5"/>
<path d="M317.333 225.096C313.349 226.741 308.881 226.741 304.897 225.096C301.494 223.443 301.494 220.813 304.897 219.1C308.88 217.447 313.35 217.447 317.333 219.1C320.77 220.77 320.77 223.468 317.333 225.096Z" fill="#E0E0E0"/>
<path d="M44.4936 220.333C48.5481 222.012 53.0969 222.012 57.1514 220.333C60.6476 218.62 60.6476 215.931 57.1514 214.252C53.0951 212.582 48.5499 212.582 44.4936 214.252C40.9974 215.931 40.9974 218.654 44.4936 220.333Z" fill="#E0E0E0"/>
<path d="M259.089 201.198C261.215 201.472 263.674 200.735 264.737 199.314C265.988 197.643 265.435 195.031 266.039 193.635C266.643 192.238 268.591 192.461 269.501 191.279C270.411 190.097 268.999 187.27 269.501 185.772C270.003 184.273 271.449 182.842 272.104 181.814C272.759 180.786 272.104 179.245 269.867 180.024C267.629 180.804 266.464 183.502 264.295 183.048C262.126 182.594 260.271 183.904 260.237 186.071C260.299 186.919 260.134 187.768 259.761 188.53C259.352 189.198 258.264 189.575 257.77 190.611L259.089 201.198Z" fill="#940C35"/>
<path opacity="0.2" d="M259.089 201.198C261.215 201.472 263.674 200.735 264.737 199.314C265.988 197.643 265.435 195.031 266.039 193.635C266.643 192.238 268.591 192.461 269.501 191.279C270.411 190.097 268.999 187.27 269.501 185.772C270.003 184.273 271.449 182.842 272.104 181.814C272.759 180.786 272.104 179.245 269.867 180.024C267.629 180.804 266.464 183.502 264.295 183.048C262.126 182.594 260.271 183.904 260.237 186.071C260.299 186.919 260.134 187.768 259.761 188.53C259.352 189.198 258.264 189.575 257.77 190.611L259.089 201.198Z" fill="black"/>
<path d="M271.109 180.641C267.987 182.354 259.514 192.153 258.817 197.361" stroke="white" stroke-width="0.5" stroke-miterlimit="10" stroke-linecap="round"/>
<path d="M66.0237 175.039L104.031 152.94V58.5229L66.0237 80.6219V175.039Z" fill="#37474F"/>
<path d="M66.0237 80.6218L24.5542 56.5186V150.927L66.0237 175.039V80.6218Z" fill="#455A64"/>
<path d="M104.031 58.523L62.57 34.4198L24.5542 56.5187L66.0237 80.6219L104.031 58.523Z" fill="#37474F"/>
<path d="M40.0787 159.972V143.895L50.8225 150.113V166.182L40.0787 159.972Z" fill="#E0E0E0"/>
<path d="M44.7658 146.61L45.8121 147.218V163.287L44.7658 162.679V146.61Z" fill="#263238"/>
<path d="M61.6769 148.392V139.432L54.5654 135.295V144.255L61.6769 148.392Z" fill="#E0E0E0"/>
<path d="M54.5654 144.255L56.3432 143.227V136.332L54.5654 135.295V144.255Z" fill="#263238"/>
<path d="M61.6769 146.328L56.3432 143.227L54.5654 144.255L61.6769 148.392V146.328Z" fill="#37474F"/>
<path d="M61.6769 165.557V156.598L54.5654 152.469V161.428L61.6769 165.557Z" fill="#E0E0E0"/>
<path d="M54.5654 161.428L56.3432 160.392V153.497L54.5654 152.469V161.428Z" fill="#263238"/>
<path d="M61.6769 163.493L56.3432 160.392L54.5654 161.428L61.6769 165.557V163.493Z" fill="#37474F"/>
<path d="M61.6769 131.586V122.627L54.5654 118.498V127.458L61.6769 131.586Z" fill="#E0E0E0"/>
<path d="M54.5654 127.458L56.3432 126.421V119.526L54.5654 118.498V127.458Z" fill="#263238"/>
<path d="M61.6769 129.522L56.3432 126.421L54.5654 127.458L61.6769 131.586V129.522Z" fill="#37474F"/>
<path d="M61.6769 114.781V105.821L54.5654 101.693V110.652L61.6769 114.781Z" fill="#E0E0E0"/>
<path d="M54.5654 110.652L56.3432 109.616V102.721L54.5654 101.693V110.652Z" fill="#263238"/>
<path d="M61.6769 112.717L56.3432 109.616L54.5654 110.652L61.6769 114.781V112.717Z" fill="#37474F"/>
<path d="M61.6769 97.984V89.016L54.5654 84.8875V93.8469L61.6769 97.984Z" fill="#E0E0E0"/>
<path d="M54.5654 93.8469L56.3432 92.8105V85.9239L54.5654 84.8875V93.8469Z" fill="#263238"/>
<path d="M61.6769 95.9112L56.3432 92.8105L54.5654 93.847L61.6769 97.9841V95.9112Z" fill="#37474F"/>
<path d="M36.0211 133.479V124.52L28.9096 120.383V129.342L36.0211 133.479Z" fill="#E0E0E0"/>
<path d="M28.9096 129.342L30.6874 128.314V121.419L28.9096 120.383V129.342Z" fill="#263238"/>
<path d="M36.0211 131.415L30.6874 128.314L28.9096 129.342L36.0211 133.479V131.415Z" fill="#37474F"/>
<path d="M36.0211 150.645V141.685L28.9096 137.557V146.507L36.0211 150.645Z" fill="#E0E0E0"/>
<path d="M28.9096 146.507L30.6874 145.48V138.584L28.9096 137.557V146.507Z" fill="#263238"/>
<path d="M36.0211 148.58L30.6874 145.48L28.9096 146.507L36.0211 150.645V148.58Z" fill="#37474F"/>
<path d="M36.0211 116.528V107.569L28.9096 103.44V112.4L36.0211 116.528Z" fill="#E0E0E0"/>
<path d="M28.9096 112.4L30.6874 111.363V104.468L28.9096 103.44V112.4Z" fill="#263238"/>
<path d="M36.0211 114.464L30.6874 111.363L28.9096 112.4L36.0211 116.528V114.464Z" fill="#37474F"/>
<path d="M36.0211 99.5858V90.6263L28.9096 86.4892V95.4487L36.0211 99.5858Z" fill="#E0E0E0"/>
<path d="M28.9096 95.4487L30.6874 94.4208V87.5256L28.9096 86.4892V95.4487Z" fill="#263238"/>
<path d="M36.0211 97.5215L30.6874 94.4208L28.9096 95.4487L36.0211 99.5858V97.5215Z" fill="#37474F"/>
<path d="M36.0211 82.6347V73.6752L28.9096 69.5467V78.5062L36.0211 82.6347Z" fill="#FAFAFA"/>
<path d="M28.9096 78.5062L30.6874 77.4697V70.5745L28.9096 69.5467V78.5062Z" fill="#263238"/>
<path d="M36.0211 80.5705L30.6874 77.4698L28.9096 78.5062L36.0211 82.6348V80.5705Z" fill="#37474F"/>
<path d="M40.0787 75.5854L44.2214 77.9923V138.25L40.0787 135.852V75.5854Z" fill="#FAFAFA"/>
<path d="M40.0787 75.5854L41.831 76.6047V134.858L40.0787 135.852V75.5854Z" fill="#263238"/>
<path d="M41.831 134.858L44.2214 136.195V138.25L40.0787 135.852L41.831 134.858Z" fill="#37474F"/>
<path d="M46.6713 79.3799L50.8225 81.7782V142.045L46.6713 139.638V79.3799Z" fill="#FAFAFA"/>
<path d="M46.6713 79.3799L48.4236 80.3992V138.644L46.6713 139.638V79.3799Z" fill="#263238"/>
<path d="M48.4236 138.644L50.8225 139.98V142.045L46.6713 139.638L48.4236 138.644Z" fill="#37474F"/>
<path d="M70.4216 148.392V139.432L77.5246 135.295V144.255L70.4216 148.392Z" fill="#E0E0E0"/>
<path d="M77.5246 144.255L75.7467 143.227L75.7552 136.332L77.5246 135.295V144.255Z" fill="#455A64"/>
<path d="M70.4216 146.328L75.7467 143.227L77.5246 144.255L70.4216 148.392V146.328Z" fill="#263238"/>
<path d="M81.4716 141.993V133.034L88.5831 128.905V137.865L81.4716 141.993Z" fill="#E0E0E0"/>
<path d="M88.5831 137.865L86.8052 136.828V129.933L88.5831 128.905V137.865Z" fill="#455A64"/>
<path d="M81.4716 139.929L86.8052 136.828L88.5831 137.865L81.4716 141.993V139.929Z" fill="#263238"/>
<path d="M92.5217 135.604V126.644L99.6332 122.507V131.466L92.5217 135.604Z" fill="#E0E0E0"/>
<path d="M99.6332 131.466L97.8553 130.439V123.543L99.6332 122.507V131.466Z" fill="#455A64"/>
<path d="M92.5217 133.531L97.8553 130.439L99.6332 131.466L92.5217 135.604V133.531Z" fill="#263238"/>
<path d="M70.4216 165.557V156.598L77.5246 152.469V161.428L70.4216 165.557Z" fill="#E0E0E0"/>
<path d="M77.5246 161.428L75.7467 160.392L75.7552 153.497L77.5246 152.469V161.428Z" fill="#455A64"/>
<path d="M70.4216 163.493L75.7467 160.392L77.5246 161.428L70.4216 165.557V163.493Z" fill="#263238"/>
<path d="M81.4716 159.167V150.199L88.5831 146.071V155.03L81.4716 159.167Z" fill="#E0E0E0"/>
<path d="M88.5831 155.03L86.8052 153.994V147.107L88.5831 146.071V155.03Z" fill="#455A64"/>
<path d="M81.4716 157.094L86.8052 153.994L88.5831 155.03L81.4716 159.167V157.094Z" fill="#263238"/>
<path d="M92.5217 152.769V143.809L99.6332 139.672V148.632L92.5217 152.769Z" fill="#E0E0E0"/>
<path d="M99.6332 148.632L97.8553 147.604V140.709L99.6332 139.672V148.632Z" fill="#455A64"/>
<path d="M92.5217 150.705L97.8553 147.604L99.6332 148.632L92.5217 152.769V150.705Z" fill="#263238"/>
<path d="M70.4216 131.586V122.627L77.5246 118.498V127.458L70.4216 131.586Z" fill="#E0E0E0"/>
<path d="M77.5246 127.458L75.7467 126.421L75.7552 119.526L77.5246 118.498V127.458Z" fill="#455A64"/>
<path d="M70.4216 129.522L75.7467 126.421L77.5246 127.458L70.4216 131.586V129.522Z" fill="#263238"/>
<path d="M81.4716 125.119V116.16L88.5831 112.031V120.991L81.4716 125.119Z" fill="#E0E0E0"/>
<path d="M88.5831 120.991L86.8052 119.954V113.059L88.5831 112.031V120.991Z" fill="#455A64"/>
<path d="M81.4716 123.055L86.8052 119.954L88.5831 120.991L81.4716 125.119V123.055Z" fill="#263238"/>
<path d="M92.5217 118.653V109.693L99.6332 105.565V114.524L92.5217 118.653Z" fill="#E0E0E0"/>
<path d="M99.6332 114.524L97.8553 113.488V106.592L99.6332 105.565V114.524Z" fill="#455A64"/>
<path d="M92.5217 116.588L97.8553 113.488L99.6332 114.524L92.5217 118.653V116.588Z" fill="#263238"/>
<path d="M70.4216 114.781V105.821L77.5246 101.693V110.652L70.4216 114.781Z" fill="#E0E0E0"/>
<path d="M77.5246 110.652L75.7467 109.616L75.7552 102.721L77.5246 101.693V110.652Z" fill="#455A64"/>
<path d="M70.4216 112.717L75.7467 109.616L77.5246 110.652L70.4216 114.781V112.717Z" fill="#263238"/>
<path d="M81.4716 108.245V99.286L88.5831 95.1489V104.117L81.4716 108.245Z" fill="#E0E0E0"/>
<path d="M88.5831 104.117L86.8052 103.08V96.1853L88.5831 95.1489V104.117Z" fill="#455A64"/>
<path d="M81.4716 106.181L86.8052 103.081L88.5831 104.117L81.4716 108.246V106.181Z" fill="#263238"/>
<path d="M92.5217 101.71V92.7506L99.6332 88.6135V97.5729L92.5217 101.71Z" fill="#E0E0E0"/>
<path d="M99.6332 97.573L97.8553 96.5451V89.6499L99.6332 88.6135V97.573Z" fill="#455A64"/>
<path d="M92.5217 99.6457L97.8553 96.545L99.6332 97.5729L92.5217 101.71V99.6457Z" fill="#263238"/>
<path d="M70.4216 97.984V89.016L77.5246 84.8875V93.8469L70.4216 97.984Z" fill="#E0E0E0"/>
<path d="M77.5246 93.8469L75.7467 92.8105L75.7552 85.9239L77.5246 84.8875V93.8469Z" fill="#455A64"/>
<path d="M70.4216 95.9112L75.7467 92.8105L77.5246 93.847L70.4216 97.9841V95.9112Z" fill="#263238"/>
<path d="M81.4716 91.3716V82.4121L88.5831 78.275V87.2344L81.4716 91.3716Z" fill="#E0E0E0"/>
<path d="M88.5831 87.2344L86.8052 86.2066V79.3114L88.5831 78.275V87.2344Z" fill="#455A64"/>
<path d="M81.4716 89.3072L86.8052 86.2065L88.5831 87.2344L81.4716 91.3715V89.3072Z" fill="#263238"/>
<path d="M92.5217 84.759V75.7995L99.6332 71.671V80.6304L92.5217 84.759Z" fill="#E0E0E0"/>
<path d="M99.6332 80.6304L97.8553 79.594V72.6988L99.6332 71.671V80.6304Z" fill="#455A64"/>
<path d="M92.5217 82.6947L97.8553 79.594L99.6332 80.6304L92.5217 84.759V82.6947Z" fill="#263238"/>
<path d="M31.47 56.5186L62.57 38.4369L97.1152 58.5229L66.0237 76.6046L31.47 56.5186Z" fill="#F0F0F0"/>
<path d="M62.57 38.4369V42.4541L93.6615 60.5358L97.1152 58.5229L62.57 38.4369Z" fill="#455A64"/>
<path d="M62.57 38.4369L31.47 56.5186L34.9237 58.5229L62.57 42.4541V38.4369Z" fill="#263238"/>
<path d="M305.849 175.039L267.842 152.94V58.5229L305.858 80.6219L305.849 175.039Z" fill="#455A64"/>
<path d="M305.858 80.6218L347.319 56.5186V150.927L305.849 175.039L305.858 80.6218Z" fill="#37474F"/>
<path d="M267.842 58.523L309.312 34.4198L347.319 56.5187L305.858 80.6219L267.842 58.523Z" fill="#37474F"/>
<path d="M331.803 159.972V143.895L321.051 150.113L321.059 166.182L331.803 159.972Z" fill="#E0E0E0"/>
<path d="M327.107 146.61L326.069 147.218V163.287L327.107 162.679V146.61Z" fill="#263238"/>
<path d="M310.196 148.392V139.432L317.308 135.295V144.255L310.196 148.392Z" fill="#E0E0E0"/>
<path d="M317.308 144.255L315.53 143.227V136.332L317.308 135.295V144.255Z" fill="#263238"/>
<path d="M310.196 146.328L315.53 143.227L317.308 144.255L310.196 148.392V146.328Z" fill="#455A64"/>
<path d="M310.196 165.557V156.598L317.308 152.469V161.428L310.196 165.557Z" fill="#E0E0E0"/>
<path d="M317.308 161.428L315.53 160.392V153.497L317.308 152.469V161.428Z" fill="#263238"/>
<path d="M310.196 163.493L315.53 160.392L317.308 161.428L310.196 165.557V163.493Z" fill="#455A64"/>
<path d="M310.196 131.586V122.627L317.308 118.498V127.458L310.196 131.586Z" fill="#E0E0E0"/>
<path d="M317.308 127.458L315.53 126.421V119.526L317.308 118.498V127.458Z" fill="#263238"/>
<path d="M310.196 129.522L315.53 126.421L317.308 127.458L310.196 131.586V129.522Z" fill="#455A64"/>
<path d="M310.196 114.781V105.821L317.308 101.693V110.652L310.196 114.781Z" fill="#E0E0E0"/>
<path d="M317.308 110.652L315.53 109.616V102.721L317.308 101.693V110.652Z" fill="#263238"/>
<path d="M310.196 112.717L315.53 109.616L317.308 110.652L310.196 114.781V112.717Z" fill="#455A64"/>
<path d="M310.196 97.984V89.016L317.308 84.8875V93.8469L310.196 97.984Z" fill="#E0E0E0"/>
<path d="M317.308 93.8469L315.53 92.8105V85.9239L317.308 84.8875V93.8469Z" fill="#263238"/>
<path d="M310.196 95.9112L315.53 92.8105L317.308 93.847L310.196 97.9841V95.9112Z" fill="#455A64"/>
<path d="M335.861 133.479V124.52L342.964 120.383V129.342L335.861 133.479Z" fill="#E0E0E0"/>
<path d="M342.963 129.342L341.194 128.314V121.419L342.963 120.383V129.342Z" fill="#263238"/>
<path d="M335.861 131.415L341.194 128.314L342.964 129.342L335.861 133.479V131.415Z" fill="#455A64"/>
<path d="M335.861 150.645V141.685L342.964 137.557V146.507L335.861 150.645Z" fill="#E0E0E0"/>
<path d="M342.963 146.507L341.194 145.48V138.584L342.963 137.557V146.507Z" fill="#263238"/>
<path d="M335.861 148.58L341.194 145.48L342.964 146.507L335.861 150.645V148.58Z" fill="#455A64"/>
<path d="M335.861 116.528V107.569L342.964 103.44V112.4L335.861 116.528Z" fill="#E0E0E0"/>
<path d="M342.963 112.4L341.194 111.363V104.468L342.963 103.44V112.4Z" fill="#263238"/>
<path d="M335.861 114.464L341.194 111.363L342.964 112.4L335.861 116.528V114.464Z" fill="#455A64"/>
<path d="M335.861 99.5858V90.6263L342.964 86.4892V95.4487L335.861 99.5858Z" fill="#E0E0E0"/>
<path d="M342.963 95.4487L341.194 94.4208V87.5256L342.963 86.4892V95.4487Z" fill="#263238"/>
<path d="M335.861 97.5215L341.194 94.4208L342.964 95.4487L335.861 99.5858V97.5215Z" fill="#455A64"/>
<path d="M335.861 82.6347V73.6752L342.964 69.5467V78.5062L335.861 82.6347Z" fill="#FAFAFA"/>
<path d="M342.963 78.5062L341.194 77.4697V70.5745L342.963 69.5467V78.5062Z" fill="#263238"/>
<path d="M335.861 80.5705L341.194 77.4698L342.964 78.5062L335.861 82.6348V80.5705Z" fill="#455A64"/>
<path d="M331.803 75.5854L327.652 77.9923V138.25L331.803 135.852V75.5854Z" fill="#FAFAFA"/>
<path d="M331.803 75.5854L330.042 76.6047V134.858L331.803 135.852V75.5854Z" fill="#263238"/>
<path d="M330.042 134.858L327.652 136.195V138.25L331.803 135.852L330.042 134.858Z" fill="#455A64"/>
<path d="M325.202 79.3799L321.059 81.7782V142.045L325.202 139.638V79.3799Z" fill="#FAFAFA"/>
<path d="M325.202 79.3799L323.449 80.3992V138.644L325.202 139.638V79.3799Z" fill="#263238"/>
<path d="M323.449 138.644L321.059 139.98V142.045L325.202 139.638L323.449 138.644Z" fill="#455A64"/>
<path d="M301.46 148.392V139.432L294.348 135.295V144.255L301.46 148.392Z" fill="#E0E0E0"/>
<path d="M294.348 144.255L296.126 143.227V136.332L294.348 135.295V144.255Z" fill="#37474F"/>
<path d="M301.46 146.328L296.126 143.227L294.348 144.255L301.46 148.392V146.328Z" fill="#263238"/>
<path d="M290.401 141.993V133.034L283.298 128.905V137.865L290.401 141.993Z" fill="#E0E0E0"/>
<path d="M283.298 137.865L285.068 136.828V129.933L283.298 128.905V137.865Z" fill="#37474F"/>
<path d="M290.401 139.929L285.068 136.828L283.298 137.865L290.401 141.993V139.929Z" fill="#263238"/>
<path d="M279.351 135.604V126.644L272.24 122.507V131.466L279.351 135.604Z" fill="#E0E0E0"/>
<path d="M272.24 131.466L274.018 130.439V123.543L272.24 122.507V131.466Z" fill="#37474F"/>
<path d="M279.351 133.531L274.018 130.439L272.24 131.466L279.351 135.604V133.531Z" fill="#263238"/>
<path d="M301.46 165.557V156.598L294.348 152.469V161.428L301.46 165.557Z" fill="#E0E0E0"/>
<path d="M294.348 161.428L296.126 160.392V153.497L294.348 152.469V161.428Z" fill="#37474F"/>
<path d="M301.46 163.493L296.126 160.392L294.348 161.428L301.46 165.557V163.493Z" fill="#263238"/>
<path d="M290.401 159.167V150.199L283.298 146.071V155.03L290.401 159.167Z" fill="#E0E0E0"/>
<path d="M283.298 155.03L285.068 153.994V147.107L283.298 146.071V155.03Z" fill="#37474F"/>
<path d="M290.401 157.094L285.068 153.994L283.298 155.03L290.401 159.167V157.094Z" fill="#263238"/>
<path d="M279.351 152.769V143.809L272.24 139.672V148.632L279.351 152.769Z" fill="#E0E0E0"/>
<path d="M272.24 148.632L274.018 147.604V140.709L272.24 139.672V148.632Z" fill="#37474F"/>
<path d="M279.351 150.705L274.018 147.604L272.24 148.632L279.351 152.769V150.705Z" fill="#263238"/>
<path d="M301.46 131.586V122.627L294.348 118.498V127.458L301.46 131.586Z" fill="#E0E0E0"/>
<path d="M294.348 127.458L296.126 126.421V119.526L294.348 118.498V127.458Z" fill="#37474F"/>
<path d="M301.46 129.522L296.126 126.421L294.348 127.458L301.46 131.586V129.522Z" fill="#263238"/>
<path d="M290.401 125.119V116.16L283.298 112.031V120.991L290.401 125.119Z" fill="#E0E0E0"/>
<path d="M283.298 120.991L285.068 119.954V113.059L283.298 112.031V120.991Z" fill="#37474F"/>
<path d="M290.401 123.055L285.068 119.954L283.298 120.991L290.401 125.119V123.055Z" fill="#263238"/>
<path d="M279.351 118.653V109.693L272.24 105.565V114.524L279.351 118.653Z" fill="#E0E0E0"/>
<path d="M272.24 114.524L274.018 113.488V106.592L272.24 105.565V114.524Z" fill="#37474F"/>
<path d="M279.351 116.588L274.018 113.488L272.24 114.524L279.351 118.653V116.588Z" fill="#263238"/>
<path d="M301.46 114.781V105.821L294.348 101.693V110.652L301.46 114.781Z" fill="#E0E0E0"/>
<path d="M294.348 110.652L296.126 109.616V102.721L294.348 101.693V110.652Z" fill="#37474F"/>
<path d="M301.46 112.717L296.126 109.616L294.348 110.652L301.46 114.781V112.717Z" fill="#263238"/>
<path d="M290.401 108.245V99.286L283.298 95.1489V104.117L290.401 108.245Z" fill="#E0E0E0"/>
<path d="M283.298 104.117L285.068 103.08V96.1853L283.298 95.1489V104.117Z" fill="#37474F"/>
<path d="M290.401 106.181L285.068 103.081L283.298 104.117L290.401 108.246V106.181Z" fill="#263238"/>
<path d="M279.351 101.71V92.7506L272.24 88.6135V97.5729L279.351 101.71Z" fill="#E0E0E0"/>
<path d="M272.24 97.573L274.018 96.5451V89.6499L272.24 88.6135V97.573Z" fill="#37474F"/>
<path d="M279.351 99.6457L274.018 96.545L272.24 97.5729L279.351 101.71V99.6457Z" fill="#263238"/>
<path d="M301.46 97.984V89.016L294.348 84.8875V93.8469L301.46 97.984Z" fill="#E0E0E0"/>
<path d="M294.348 93.8469L296.126 92.8105V85.9239L294.348 84.8875V93.8469Z" fill="#37474F"/>
<path d="M301.46 95.9112L296.126 92.8105L294.348 93.847L301.46 97.9841V95.9112Z" fill="#263238"/>
<path d="M290.401 91.3716V82.4121L283.298 78.275V87.2344L290.401 91.3716Z" fill="#E0E0E0"/>
<path d="M283.298 87.2344L285.068 86.2066V79.3114L283.298 78.275V87.2344Z" fill="#37474F"/>
<path d="M290.401 89.3072L285.068 86.2065L283.298 87.2344L290.401 91.3715V89.3072Z" fill="#263238"/>
<path d="M279.351 84.759V75.7995L272.24 71.671V80.6304L279.351 84.759Z" fill="#E0E0E0"/>
<path d="M272.24 80.6304L274.018 79.594V72.6988L272.24 71.671V80.6304Z" fill="#37474F"/>
<path d="M279.351 82.6947L274.018 79.594L272.24 80.6304L279.351 84.759V82.6947Z" fill="#263238"/>
<path d="M340.412 56.5186L309.312 38.4369L274.758 58.5229L305.858 76.6046L340.412 56.5186Z" fill="#F0F0F0"/>
<path d="M309.312 38.4369V42.4541L278.212 60.5358L274.758 58.5229L309.312 38.4369Z" fill="#263238"/>
<path d="M309.311 38.4369L340.412 56.5186L336.949 58.5229L309.311 42.4541V38.4369Z" fill="#455A64"/>
<path d="M249.476 263.272C245.152 265.062 240.301 265.062 235.976 263.272C232.251 261.482 232.251 258.587 235.976 256.796C240.301 255.006 245.152 255.006 249.476 256.796C253.211 258.587 253.211 261.482 249.476 263.272Z" fill="#E0E0E0"/>
<path d="M109.858 257.37C114.185 259.161 119.039 259.161 123.366 257.37C127.092 255.58 127.092 252.685 123.366 250.895C119.039 249.104 114.185 249.104 109.858 250.895C106.149 252.685 106.149 255.58 109.858 257.37Z" fill="#E0E0E0"/>
<path d="M188.807 256.325L271.508 208.247C272.064 207.951 272.528 207.507 272.852 206.965C273.176 206.422 273.347 205.801 273.347 205.168C273.347 204.535 273.176 203.914 272.852 203.371C272.528 202.829 272.064 202.386 271.508 202.089L188.799 154.011C188.228 153.72 187.597 153.568 186.957 153.568C186.317 153.568 185.686 153.72 185.116 154.011L102.415 202.054C101.86 202.351 101.395 202.795 101.071 203.337C100.747 203.88 100.576 204.501 100.576 205.134C100.576 205.767 100.747 206.388 101.071 206.93C101.395 207.473 101.86 207.916 102.415 208.213L185.124 256.291C185.692 256.588 186.322 256.745 186.962 256.751C187.602 256.757 188.234 256.611 188.807 256.325Z" fill="#9B3131"/>
<path d="M188.807 256.325L271.508 208.247C272.064 207.951 272.528 207.507 272.852 206.965C273.176 206.422 273.347 205.801 273.347 205.168C273.347 204.535 273.176 203.914 272.852 203.371C272.528 202.829 272.064 202.386 271.508 202.089L188.799 154.011C188.228 153.72 187.597 153.568 186.957 153.568C186.317 153.568 185.686 153.72 185.116 154.011L102.415 202.054C101.86 202.351 101.395 202.795 101.071 203.337C100.747 203.88 100.576 204.501 100.576 205.134C100.576 205.767 100.747 206.388 101.071 206.93C101.395 207.473 101.86 207.916 102.415 208.213L185.124 256.291C185.692 256.588 186.322 256.745 186.962 256.751C187.602 256.757 188.234 256.611 188.807 256.325Z" fill="#9B3131"/>
<path d="M188.807 256.325L271.508 208.247C272.064 207.951 272.528 207.507 272.852 206.965C273.176 206.422 273.347 205.801 273.347 205.168C273.347 204.535 273.176 203.914 272.852 203.371C272.528 202.829 272.064 202.386 271.508 202.089L188.799 154.011C188.228 153.72 187.597 153.568 186.957 153.568C186.317 153.568 185.686 153.72 185.116 154.011L102.415 202.054C101.86 202.351 101.395 202.795 101.071 203.337C100.747 203.88 100.576 204.501 100.576 205.134C100.576 205.767 100.747 206.388 101.071 206.93C101.395 207.473 101.86 207.916 102.415 208.213L185.124 256.291C185.692 256.588 186.322 256.745 186.962 256.751C187.602 256.757 188.234 256.611 188.807 256.325Z" fill="#9B3131"/>
<path opacity="0.2" d="M188.807 256.325L271.508 208.247C272.064 207.951 272.528 207.507 272.852 206.965C273.176 206.422 273.347 205.801 273.347 205.168C273.347 204.535 273.176 203.914 272.852 203.371C272.528 202.829 272.064 202.386 271.508 202.089L188.799 154.011C188.228 153.72 187.597 153.568 186.957 153.568C186.317 153.568 185.686 153.72 185.116 154.011L102.415 202.054C101.86 202.351 101.395 202.795 101.071 203.337C100.747 203.88 100.576 204.501 100.576 205.134C100.576 205.767 100.747 206.388 101.071 206.93C101.395 207.473 101.86 207.916 102.415 208.213L185.124 256.291C185.692 256.588 186.322 256.745 186.962 256.751C187.602 256.757 188.234 256.611 188.807 256.325Z" fill="black"/>
<path d="M102.415 204.23L185.124 252.308C185.695 252.599 186.326 252.751 186.966 252.751C187.606 252.751 188.237 252.599 188.807 252.308L271.508 204.23C271.731 204.154 271.924 204.01 272.06 203.818C272.197 203.626 272.27 203.396 272.27 203.159C272.27 202.923 272.197 202.693 272.06 202.501C271.924 202.309 271.731 202.165 271.508 202.089L188.799 154.011C188.228 153.72 187.597 153.568 186.957 153.568C186.317 153.568 185.686 153.72 185.116 154.011L102.415 202.054C102.18 202.122 101.973 202.264 101.825 202.46C101.678 202.657 101.598 202.896 101.598 203.142C101.598 203.388 101.678 203.628 101.825 203.824C101.973 204.02 102.18 204.163 102.415 204.23Z" fill="#9B3131"/>
<path d="M200.785 235.297L259.523 201.147V58.5229L200.785 92.6735V235.297Z" fill="#37474F"/>
<path d="M186.962 245.344V100.708L114.401 58.5229V203.159L186.962 245.344Z" fill="#455A64"/>
<path d="M186.962 185.078L114.401 142.893V138.876L107.485 142.893L186.962 189.095V185.078Z" fill="#9B3131"/>
<path opacity="0.5" d="M186.962 185.078L114.401 142.893V138.876L107.485 142.893L186.962 189.095V185.078Z" fill="white"/>
<path d="M107.485 142.893L186.962 189.095V193.112L107.485 146.91V142.893Z" fill="#9B3131"/>
<path d="M186.962 185.078L200.785 177.043L204.238 179.056L186.962 189.095V185.078Z" fill="#9B3131"/>
<path opacity="0.5" d="M186.962 185.078L200.785 177.043L204.238 179.056L186.962 189.095V185.078Z" fill="white"/>
<path d="M186.962 193.112L204.238 183.073V179.056L186.962 189.095V193.112Z" fill="#9B3131"/>
<path opacity="0.2" d="M186.962 193.112L204.238 183.073V179.056L186.962 189.095V193.112Z" fill="black"/>
<path d="M186.962 100.708L200.785 92.6735V177.043L186.962 185.078V100.708Z" fill="#263238"/>
<path d="M186.962 193.112L200.785 185.078V237.31L186.962 245.344V193.112Z" fill="#263238"/>
<path d="M180.054 173.026V152.94L166.231 144.906V164.992L180.054 173.026Z" fill="#9B3131"/>
<path opacity="0.5" d="M180.054 173.026V152.94L166.231 144.906V164.992L180.054 173.026Z" fill="white"/>
<path d="M166.231 164.992L169.685 162.987V146.91L166.231 144.906V164.992Z" fill="#263238"/>
<path d="M180.054 169.009L169.685 162.987L166.231 164.992L180.054 173.026V169.009Z" fill="#263238"/>
<path d="M159.315 160.975V140.888L142.038 130.841V150.927L159.315 160.975Z" fill="#9B3131"/>
<path opacity="0.5" d="M159.315 160.975V140.888L142.038 130.841V150.927L159.315 160.975Z" fill="white"/>
<path d="M145.492 148.923L145.501 132.854L142.038 130.841V150.927L145.492 148.923Z" fill="#263238"/>
<path d="M159.315 156.957V160.975L142.038 150.927L145.492 148.923L159.315 156.957Z" fill="#263238"/>
<path d="M209.419 216.213V196.127L226.696 186.088V206.174L209.419 216.213Z" fill="#9B3131"/>
<path d="M223.242 204.162V188.093L226.696 186.088V206.174L223.242 204.162Z" fill="#263238"/>
<path d="M209.419 212.196V216.213L226.696 206.175L223.242 204.162L209.419 212.196Z" fill="#263238"/>
<path d="M209.419 182.739V162.653L226.696 152.606V172.692L209.419 182.739Z" fill="#9B3131"/>
<path d="M223.242 170.688V154.61L226.696 152.606V172.692L223.242 170.688Z" fill="#263238"/>
<path d="M209.419 178.722V182.739L226.696 172.692L223.242 170.688L209.419 178.722Z" fill="#263238"/>
<path d="M209.419 149.257V129.171L226.696 119.124V139.21L209.419 149.257Z" fill="#9B3131"/>
<path d="M223.242 137.205V121.137L226.696 119.124V139.21L223.242 137.205Z" fill="#263238"/>
<path d="M209.419 145.24V149.257L226.696 139.21L223.242 137.205L209.419 145.24Z" fill="#263238"/>
<path d="M209.419 115.775V95.6885L226.696 85.6412V105.736L209.419 115.775Z" fill="#9B3131"/>
<path d="M223.242 103.723V87.6541L226.696 85.6412V105.736L223.242 103.723Z" fill="#263238"/>
<path d="M209.419 111.757V115.775L226.696 105.736L223.242 103.723L209.419 111.757Z" fill="#263238"/>
<path d="M233.986 201.935V181.849L251.271 171.81L251.263 191.896L233.986 201.935Z" fill="#9B3131"/>
<path d="M247.809 189.883V173.814L251.271 171.81L251.263 191.896L247.809 189.883Z" fill="#263238"/>
<path d="M233.986 197.926V201.934L251.263 191.896L247.809 189.883L233.986 197.926Z" fill="#263238"/>
<path d="M233.986 168.461V148.366L251.271 138.327L251.263 158.413L233.986 168.461Z" fill="#9B3131"/>
<path d="M247.809 156.409V140.332L251.271 138.327L251.263 158.413L247.809 156.409Z" fill="#263238"/>
<path d="M233.986 164.444V168.461L251.263 158.413L247.809 156.409L233.986 164.444Z" fill="#263238"/>
<path d="M233.986 134.978V114.892L251.271 104.845L251.263 124.94L233.986 134.978Z" fill="#9B3131"/>
<path d="M247.809 122.927V106.858L251.271 104.845L251.263 124.94L247.809 122.927Z" fill="#263238"/>
<path d="M233.986 130.961V134.978L251.263 124.94L247.809 122.927L233.986 130.961Z" fill="#263238"/>
<path d="M233.986 101.496V81.4099L251.271 71.3712L251.263 91.4572L233.986 101.496Z" fill="#9B3131"/>
<path d="M247.809 89.4443V73.3755L251.271 71.3712L251.263 91.4572L247.809 89.4443Z" fill="#263238"/>
<path d="M233.986 97.4787V101.496L251.263 91.4572L247.809 89.4443L233.986 97.4787Z" fill="#263238"/>
<path d="M135.131 146.91V126.824L121.308 118.79V138.876L135.131 146.91Z" fill="#9B3131"/>
<path opacity="0.5" d="M135.131 146.91V126.824L121.308 118.79V138.876L135.131 146.91Z" fill="white"/>
<path d="M124.762 136.871L121.308 138.876V118.79L124.762 120.802V136.871Z" fill="#263238"/>
<path d="M135.131 142.893L124.762 136.871L121.308 138.876L135.131 146.91V142.893Z" fill="#263238"/>
<path d="M142.038 185.275C142.038 179.604 145.909 177.249 150.681 180.024C155.453 182.799 159.315 189.643 159.315 195.322V229.276L142.038 219.228V185.275Z" fill="#263238"/>
<path d="M159.315 195.322C159.315 189.643 155.453 182.791 150.681 180.024C149.466 179.249 148.053 178.847 146.615 178.868C145.826 180.195 145.438 181.725 145.501 183.27V217.224L159.315 225.258V195.322Z" fill="#455A64"/>
<path d="M159.315 195.322C159.315 189.643 155.453 182.791 150.681 180.024C149.466 179.249 148.053 178.847 146.615 178.868C145.826 180.195 145.438 181.725 145.501 183.27V217.224L159.315 225.258V195.322Z" fill="#9B3131"/>
<path opacity="0.5" d="M159.315 195.322C159.315 189.643 155.453 182.791 150.681 180.024C149.466 179.249 148.053 178.847 146.615 178.868C145.826 180.195 145.438 181.725 145.501 183.27V217.224L159.315 225.258V195.322Z" fill="white"/>
<path d="M153.173 181.917C152.643 181.413 152.074 180.952 151.472 180.538V189.566L145.518 186.088V188.17L151.472 191.656V217.686L153.173 218.671V192.632L159.315 196.204V195.348C159.315 194.937 159.315 194.491 159.256 194.106L153.173 190.577V181.917Z" fill="#455A64"/>
<path d="M186.962 100.708V88.6563L110.938 44.467V56.5186L186.962 100.708Z" fill="#9B3131"/>
<path opacity="0.5" d="M186.962 100.708V88.6563L110.938 44.467V56.5186L186.962 100.708Z" fill="white"/>
<path d="M186.962 100.708V88.6563L262.985 44.467V56.5186L186.962 100.708Z" fill="#9B3131"/>
<path opacity="0.2" d="M186.962 100.708V88.6563L262.985 44.467V56.5186L186.962 100.708Z" fill="black"/>
<path d="M121.308 79.14C121.308 74.4119 124.404 72.3733 128.215 74.5918C132.026 76.8102 135.131 82.4463 135.131 87.1744V118.79L121.308 110.755V79.14Z" fill="#263238"/>
<path d="M128.215 74.5832C127.393 74.0871 126.466 73.7936 125.51 73.7267C124.984 74.7892 124.727 75.9661 124.762 77.1529V108.768L135.131 114.764V87.1659C135.131 82.4378 132.035 76.8017 128.215 74.5832Z" fill="#9B3131"/>
<path opacity="0.5" d="M128.215 74.5832C127.393 74.0871 126.466 73.7936 125.51 73.7267C124.984 74.7892 124.727 75.9661 124.762 77.1529V108.768L135.131 114.764V87.1659C135.131 82.4378 132.035 76.8017 128.215 74.5832Z" fill="white"/>
<path d="M121.308 110.755L124.762 108.742L135.131 114.764V118.79L121.308 110.755Z" fill="#263238"/>
<path d="M142.038 92.9048C142.038 87.2259 145.909 84.8789 150.681 87.6541C155.453 90.4294 159.315 97.2732 159.315 102.952V132.854L142.038 122.807V92.9048Z" fill="#263238"/>
<path d="M159.315 102.952C159.315 97.2732 155.453 90.4208 150.681 87.6542C149.466 86.8791 148.053 86.4772 146.615 86.4978C145.826 87.8248 145.438 89.355 145.501 90.9005V120.794L159.315 128.837V102.952Z" fill="#9B3131"/>
<path opacity="0.5" d="M159.315 102.952C159.315 97.2732 155.453 90.4208 150.681 87.6542C149.466 86.8791 148.053 86.4772 146.615 86.4978C145.826 87.8248 145.438 89.355 145.501 90.9005V120.794L159.315 128.837V102.952Z" fill="white"/>
<path d="M145.501 120.794L142.038 122.807L159.315 132.854V128.837L145.501 120.794Z" fill="#263238"/>
<path d="M166.231 105.265C166.231 100.537 169.319 98.498 173.138 100.716C176.958 102.935 180.054 108.571 180.054 113.299V144.914L166.231 136.88V105.265Z" fill="#263238"/>
<path d="M173.138 100.708C172.316 100.213 171.389 99.9195 170.433 99.8513C169.906 100.913 169.649 102.091 169.685 103.278V134.893L180.054 140.888V113.291C180.054 108.562 176.958 102.926 173.138 100.708Z" fill="#9B3131"/>
<path opacity="0.5" d="M173.138 100.708C172.316 100.213 171.389 99.9195 170.433 99.8513C169.906 100.913 169.649 102.091 169.685 103.278V134.893L180.054 140.888V113.291C180.054 108.562 176.958 102.926 173.138 100.708Z" fill="white"/>
<path d="M169.685 134.858L166.231 136.871L180.054 144.906V140.888L169.685 134.858Z" fill="#263238"/>
<path d="M166.231 197.626C166.231 192.898 169.319 190.859 173.138 193.078C176.958 195.296 180.054 200.932 180.054 205.661V241.327L166.231 233.293V197.626Z" fill="#263238"/>
<path d="M173.138 193.078C172.316 192.583 171.389 192.29 170.433 192.221C169.907 193.284 169.65 194.461 169.685 195.647V231.306L180.054 237.301V205.609C180.054 200.932 176.958 195.296 173.138 193.078Z" fill="#9B3131"/>
<path opacity="0.5" d="M173.138 193.078C172.316 192.583 171.389 192.29 170.433 192.221C169.907 193.284 169.65 194.461 169.685 195.647V231.306L180.054 237.301V205.609C180.054 200.932 176.958 195.296 173.138 193.078Z" fill="white"/>
<path d="M166.231 233.293V221.241L180.054 229.276V241.327L166.231 233.293Z" fill="#37474F"/>
<path d="M166.231 221.241L169.685 219.228L180.046 225.258L180.054 229.276L166.231 221.241Z" fill="#263238"/>
<path d="M121.308 171.51C121.308 166.782 124.404 164.743 128.215 166.962C132.026 169.18 135.131 174.816 135.131 179.544V215.211L121.308 207.194V171.51Z" fill="#263238"/>
<path d="M128.215 166.936C127.391 166.444 126.465 166.151 125.51 166.08C124.984 167.142 124.727 168.319 124.762 169.506V205.172L135.131 211.168V179.476C135.131 174.808 132.035 169.172 128.215 166.936Z" fill="#9B3131"/>
<path opacity="0.5" d="M128.215 166.936C127.391 166.444 126.465 166.151 125.51 166.08C124.984 167.142 124.727 168.319 124.762 169.506V205.172L135.131 211.168V179.476C135.131 174.808 132.035 169.172 128.215 166.936Z" fill="white"/>
<path d="M135.131 215.211V203.159L121.308 195.125V207.177L135.131 215.211Z" fill="#37474F"/>
<path d="M121.308 195.125L124.762 193.112L135.131 199.142V203.159L121.308 195.125Z" fill="#263238"/>
<path d="M142.038 219.228V215.211L159.315 225.258V229.275L142.038 219.228Z" fill="#37474F"/>
<path d="M142.038 215.211L145.501 213.207L159.315 221.241V225.258L142.038 215.211Z" fill="#263238"/>
<path d="M186.962 88.6563L262.985 44.467L186.962 0.269226L110.938 44.467L186.962 88.6563Z" fill="#9B3131"/>
<path opacity="0.7" d="M186.962 88.6563L262.985 44.467L186.962 0.269226L110.938 44.467L186.962 88.6563Z" fill="white"/>
<path d="M186.962 80.6219L249.162 44.467L186.962 8.30365L124.762 44.467L186.962 80.6219Z" fill="#9B3131"/>
<path d="M186.962 8.30365V20.3638L135.131 50.4886L124.762 44.467L186.962 8.30365Z" fill="#9B3131"/>
<path opacity="0.2" d="M186.962 8.30365V20.3638L135.131 50.4886L124.762 44.467L186.962 8.30365Z" fill="black"/>
<path d="M186.962 8.30365L249.162 44.467L238.792 50.4886L186.962 20.3638V8.30365Z" fill="#9B3131"/>
<path opacity="0.5" d="M186.962 8.30365L249.162 44.467L238.792 50.4886L186.962 20.3638V8.30365Z" fill="white"/>
<path d="M176.592 18.351L159.315 28.3982L183.508 42.4542L200.785 32.4154L176.592 18.351Z" fill="#455A64"/>
<path d="M159.315 28.3982V40.4498L183.508 54.5057V42.4541L159.315 28.3982Z" fill="#37474F"/>
<path d="M200.785 32.4154V44.467L183.508 54.5058V42.4541L200.785 32.4154Z" fill="#263238"/>
<path d="M170.918 25.092C167.779 26.9164 167.779 29.8715 170.918 31.6959C172.678 32.5957 174.623 33.0647 176.596 33.0647C178.57 33.0647 180.515 32.5957 182.274 31.6959C185.405 29.8715 185.405 26.9164 182.274 25.092C180.515 24.1922 178.57 23.7232 176.596 23.7232C174.623 23.7232 172.678 24.1922 170.918 25.092Z" fill="#37474F"/>
<path d="M173.938 26.9763C172.466 27.7558 172.466 29.0321 173.938 29.8115C174.771 30.2009 175.678 30.4027 176.596 30.4027C177.515 30.4027 178.422 30.2009 179.255 29.8115C180.718 29.0321 180.718 27.7558 179.255 26.9763C178.422 26.5869 177.515 26.3852 176.596 26.3852C175.678 26.3852 174.771 26.5869 173.938 26.9763Z" fill="#263238"/>
<path d="M188.85 43.3621L192.304 45.3665V53.4094" stroke="#455A64" stroke-width="2" stroke-linecap="round" stroke-linejoin="round"/>
<path d="M193.869 40.4498L197.323 42.4541V50.4886" stroke="#455A64" stroke-width="2" stroke-linecap="round" stroke-linejoin="round"/>
<path d="M87.0264 161.523V189.206C87.0429 189.403 87.1116 189.592 87.2253 189.754C87.339 189.915 87.4936 190.042 87.6729 190.123C88.1636 190.372 88.7056 190.502 89.2551 190.502C89.8047 190.502 90.3467 190.372 90.8374 190.123C91.0167 190.042 91.1713 189.915 91.285 189.754C91.3987 189.592 91.4674 189.403 91.4839 189.206V161.54L87.0264 161.523Z" fill="#37474F"/>
<path d="M99.9904 169.574C99.9904 172.441 98.8594 175.191 96.8462 177.218C94.8329 179.245 92.1023 180.384 89.2552 180.384C86.408 180.384 83.6774 179.245 81.6642 177.218C79.6509 175.191 78.5199 172.441 78.5199 169.574C78.5199 158.525 83.3261 146.447 89.2552 146.447C95.1842 146.447 99.9904 158.371 99.9904 169.574Z" fill="white"/>
<path d="M99.9904 169.574C99.9904 169.292 99.9904 169.009 99.9904 168.718V168.435C99.9074 169.613 99.4512 170.733 98.6889 171.63C96.6558 174.2 92.1729 176.992 87.5453 175.056C79.7703 171.776 79.5576 162.516 81.2845 154.85C79.4713 159.548 78.5396 164.543 78.5369 169.583C78.5369 172.45 79.6679 175.199 81.6812 177.226C83.6944 179.254 86.425 180.392 89.2722 180.392C92.1193 180.392 94.8499 179.254 96.8632 177.226C98.8764 175.199 100.007 172.45 100.007 169.583L99.9904 169.574Z" fill="white"/>
<path opacity="0.1" d="M99.9904 169.574C99.9904 169.292 99.9904 169.009 99.9904 168.718V168.435C99.9074 169.613 99.4512 170.733 98.6889 171.63C96.6558 174.2 92.1729 176.992 87.5453 175.056C79.7703 171.776 79.5576 162.516 81.2845 154.85C79.4713 159.548 78.5396 164.543 78.5369 169.583C78.5369 172.45 79.6679 175.199 81.6812 177.226C83.6944 179.254 86.425 180.392 89.2722 180.392C92.1193 180.392 94.8499 179.254 96.8632 177.226C98.8764 175.199 100.007 172.45 100.007 169.583L99.9904 169.574Z" fill="black"/>
<path d="M8.50232 112.974V140.649C8.51995 140.851 8.59177 141.045 8.71012 141.209C8.82846 141.373 8.98891 141.502 9.17434 141.582C9.66355 141.831 10.2041 141.961 10.7523 141.961C11.3005 141.961 11.8411 141.831 12.3303 141.582C12.5102 141.501 12.6656 141.374 12.7806 141.213C12.8957 141.052 12.9663 140.863 12.9853 140.666V112.974H8.50232Z" fill="#37474F"/>
<path d="M21.4663 121.051C21.5067 122.495 21.259 123.934 20.7379 125.28C20.2168 126.627 19.4328 127.854 18.4324 128.89C17.4319 129.927 16.2353 130.75 14.9132 131.313C13.5911 131.875 12.1705 132.165 10.7353 132.165C9.30008 132.165 7.87944 131.875 6.55737 131.313C5.23531 130.75 4.03867 129.927 3.0382 128.89C2.03774 127.854 1.25377 126.627 0.732656 125.28C0.21154 123.934 -0.0361429 122.495 0.00425355 121.051C0.00425355 110.001 4.81047 97.9241 10.731 97.9241C16.6516 97.9241 21.4663 109.822 21.4663 121.051Z" fill="white"/>
<path d="M365.421 112.974V140.649C365.402 140.846 365.331 141.035 365.216 141.196C365.101 141.357 364.946 141.484 364.766 141.565C364.277 141.814 363.736 141.944 363.188 141.944C362.64 141.944 362.099 141.814 361.61 141.565C361.43 141.484 361.275 141.357 361.16 141.196C361.045 141.035 360.974 140.846 360.955 140.649V112.974H365.421Z" fill="#37474F"/>
<path d="M352.457 121.051C352.416 122.495 352.664 123.934 353.185 125.28C353.706 126.627 354.49 127.854 355.491 128.89C356.491 129.927 357.688 130.75 359.01 131.313C360.332 131.875 361.753 132.165 363.188 132.165C364.623 132.165 366.044 131.875 367.366 131.313C368.688 130.75 369.884 129.927 370.885 128.89C371.885 127.854 372.669 126.627 373.19 125.28C373.712 123.934 373.959 122.495 373.919 121.051C373.919 110.001 369.113 97.9241 363.192 97.9241C357.272 97.9241 352.457 109.822 352.457 121.051Z" fill="white"/>
<path d="M306.053 191.348H313.514V183.065C313.514 182.571 313.417 182.083 313.229 181.627C313.042 181.171 312.766 180.757 312.419 180.409C312.073 180.06 311.661 179.784 311.208 179.596C310.755 179.408 310.269 179.312 309.779 179.313C308.791 179.313 307.844 179.708 307.145 180.412C306.446 181.116 306.053 182.07 306.053 183.065V191.348Z" fill="#940C35"/>
<g opacity="0.5">
<path d="M306.053 191.348H313.514V183.065C313.514 182.571 313.417 182.083 313.229 181.627C313.042 181.171 312.766 180.757 312.419 180.409C312.073 180.06 311.661 179.784 311.208 179.596C310.755 179.408 310.269 179.312 309.779 179.313C308.791 179.313 307.844 179.708 307.145 180.412C306.446 181.116 306.053 182.07 306.053 183.065V191.348Z" fill="black"/>
</g>
<path d="M307.049 194.106C307.551 191.587 308.495 188.812 308.444 187.562L307.712 187.604C307.278 187.634 306.866 187.811 306.545 188.107C306.223 188.402 306.011 188.799 305.943 189.232C305.679 190.868 305.279 193.369 305.092 194.371C304.925 195.651 304.64 196.913 304.242 198.14C304.173 198.317 304.043 198.463 303.876 198.551C303.513 198.767 303.186 199.039 302.906 199.356C302.634 199.596 302.421 199.648 302.447 199.733C302.488 199.828 302.564 199.904 302.658 199.946C302.753 199.987 302.86 199.991 302.957 199.956C303.175 199.888 303.384 199.793 303.578 199.673C303.404 200.05 303.168 200.395 302.881 200.693C302.234 201.378 302.174 201.823 303.374 201.926C304.122 201.986 304.752 201.566 305.441 199.956C305.704 199.364 305.926 198.754 306.105 198.131C306.564 196.53 306.853 195.099 307.049 194.106Z" fill="#B85C5B"/>
<path d="M318.09 215.759C318.371 215.605 318.558 215.973 318.813 216.264C319.034 216.48 319.208 216.74 319.324 217.027C319.315 217.258 319.257 217.484 319.154 217.691C319.052 217.898 318.906 218.08 318.728 218.226C318.302 218.489 317.997 218.911 317.878 219.399C317.845 219.701 317.729 219.987 317.543 220.225C317.356 220.463 317.106 220.643 316.823 220.744C316.493 220.883 316.138 220.954 315.781 220.954C315.423 220.954 315.069 220.883 314.739 220.744C314.339 220.487 314.739 220.196 315.266 219.391C315.998 218.337 316.568 217.584 316.568 216.599L318.09 215.759Z" fill="#263238"/>
<path d="M317.503 214.851L318.099 215.708C318.226 215.891 318.277 216.118 318.24 216.339C318.204 216.56 318.083 216.758 317.903 216.89C317.721 217.001 317.506 217.044 317.296 217.011C317.086 216.978 316.894 216.871 316.755 216.71L315.819 215.673L317.503 214.851Z" fill="#B85C5B"/>
<path d="M306.053 198.765C306.14 201.035 306.565 203.278 307.312 205.421C307.762 206.651 308.332 207.833 309.014 208.95C309.26 209.378 316.295 216.273 316.295 216.273C316.632 216.245 316.949 216.107 317.2 215.879C317.45 215.652 317.62 215.348 317.682 215.014C317.682 215.014 314.798 210.08 314.169 209.07C313.346 208.086 312.393 207.221 311.336 206.5L311.54 197.643L306.053 198.765Z" fill="#37474F"/>
<path d="M308.509 219.442L307.024 219.102L306.532 221.282L308.017 221.622L308.509 219.442Z" fill="#B85C5B"/>
<path d="M307.312 197.532L313.641 197.78C314.072 198.723 314.257 199.761 314.177 200.795C313.965 203.905 311.038 209.464 311.038 209.464C311.175 210.722 311.112 211.994 310.851 213.232C310.186 215.499 309.402 217.73 308.503 219.913C308.216 219.957 307.923 219.938 307.644 219.857C307.365 219.775 307.107 219.634 306.887 219.442C306.887 219.442 307.84 210.92 308.095 208.736C308.376 206.371 309.09 202.054 309.09 202.054C308.616 201.583 308.189 201.067 307.814 200.513C307.151 199.667 306.81 198.609 306.853 197.532" fill="#37474F"/>
<path d="M316.057 195.853C315.843 193.657 315.49 191.477 315.002 189.326C314.944 188.972 314.772 188.646 314.513 188.4C314.253 188.154 313.92 188.001 313.565 187.964C311.498 189.086 311.515 190.577 313.276 192.375C313.276 192.375 314.007 195.271 314.237 196.658C314.477 197.926 314.591 199.214 314.577 200.504C314.567 200.693 314.485 200.871 314.347 201.001C314.065 201.316 313.83 201.671 313.65 202.054C313.463 202.363 313.267 202.474 313.318 202.551C313.385 202.631 313.479 202.682 313.581 202.695C313.684 202.708 313.787 202.681 313.871 202.62C314.06 202.491 314.231 202.338 314.381 202.166C314.323 202.574 314.199 202.97 314.016 203.339C313.59 204.196 313.658 204.633 314.866 204.384C315.598 204.23 316.083 203.639 316.278 201.892C316.365 201.247 316.405 200.598 316.397 199.947C316.261 198.311 316.159 196.864 316.057 195.853Z" fill="#B85C5B"/>
<path d="M306.691 220.547L306.734 220.333C306.581 220.333 305.883 221.481 305.245 221.969C304.607 222.457 303.893 222.826 303.544 223.048C303.195 223.271 303.74 224.025 304.803 224.085C305.429 224.121 306.052 223.976 306.598 223.665C306.896 223.382 307.108 222.911 307.346 222.706C307.585 222.5 308.061 222.329 308.197 222.063C308.285 221.805 308.314 221.53 308.282 221.258C308.282 220.976 308.282 220.667 308.172 220.676V220.838C307.889 220.98 307.576 221.048 307.261 221.036C307.032 221.027 306.564 220.967 306.691 220.547Z" fill="#263238"/>
<path d="M308.282 207.288C308.282 207.288 308.92 202.757 309.09 202.054C308.582 201.774 308.108 201.435 307.678 201.044C307.973 201.466 308.294 201.87 308.639 202.251L308.282 207.288Z" fill="#263238"/>
<path d="M312.102 207.134C311.796 207.932 311.441 208.71 311.038 209.464C311.038 209.464 311.115 210.92 311.106 211.177L311.506 211.528C311.516 210.869 311.456 210.212 311.328 209.566C311.673 208.786 311.933 207.971 312.102 207.134Z" fill="#263238"/>
<path d="M311.336 187.596C312.085 187.681 312.828 187.804 313.565 187.964C311.506 189.42 313.276 192.375 313.276 192.375L312.178 195.433C312.915 196.407 313.514 197.479 313.956 198.62C313.378 199.288 309.941 201.309 306.019 198.765C306.019 198.765 306.249 196.538 306.572 194.859C306.011 192.136 305.849 191.176 306.019 190.534C306.479 188.735 307.534 187.587 308.742 187.519L311.336 187.596Z" fill="#F5F5F5"/>
<path d="M307.312 180.829C306.921 181.061 306.462 182.063 306.462 184.153C306.504 185.926 307.074 186.363 307.363 186.491C307.817 186.586 308.286 186.572 308.733 186.448V187.493C308.733 187.493 307.993 188.35 308.044 188.855C308.095 189.36 309.116 189.455 309.805 188.984C310.309 188.589 310.744 188.111 311.089 187.57V185.129C311.089 185.129 311.413 185.437 311.94 184.966C312.155 184.811 312.302 184.577 312.348 184.315C312.394 184.052 312.336 183.782 312.187 183.562C312.097 183.477 311.988 183.416 311.87 183.382C311.752 183.348 311.627 183.343 311.507 183.367C311.386 183.391 311.273 183.444 311.177 183.521C311.081 183.598 311.004 183.697 310.953 183.81C310.25 183.782 309.566 183.576 308.963 183.21C308.521 182.972 308.142 182.632 307.855 182.218C307.568 181.805 307.382 181.329 307.312 180.829Z" fill="#B85C5B"/>
<path d="M308.444 183.707C308.444 183.766 308.467 183.823 308.509 183.865C308.55 183.906 308.606 183.93 308.665 183.93C308.724 183.93 308.78 183.906 308.821 183.865C308.863 183.823 308.886 183.766 308.886 183.707C308.888 183.677 308.885 183.646 308.875 183.617C308.866 183.588 308.851 183.562 308.831 183.538C308.811 183.515 308.787 183.496 308.76 183.483C308.733 183.469 308.704 183.461 308.674 183.459C308.642 183.459 308.611 183.465 308.582 183.478C308.552 183.491 308.526 183.509 308.505 183.532C308.483 183.556 308.467 183.583 308.456 183.613C308.446 183.643 308.441 183.675 308.444 183.707Z" fill="#263238"/>
<path d="M308.384 185.215L307.874 185.378C307.883 185.412 307.898 185.445 307.92 185.473C307.942 185.502 307.969 185.525 308 185.543C308.031 185.561 308.065 185.572 308.1 185.576C308.136 185.58 308.172 185.576 308.206 185.566C308.275 185.542 308.333 185.493 308.366 185.427C308.399 185.361 308.406 185.285 308.384 185.215Z" fill="#F28F8F"/>
<path d="M306.632 183.022L307.074 182.714C307.056 182.683 307.032 182.657 307.003 182.637C306.975 182.616 306.942 182.602 306.908 182.595C306.874 182.588 306.838 182.588 306.804 182.595C306.77 182.602 306.737 182.616 306.708 182.637C306.678 182.656 306.652 182.682 306.631 182.713C306.611 182.743 306.596 182.777 306.589 182.813C306.582 182.849 306.582 182.886 306.59 182.922C306.597 182.958 306.611 182.992 306.632 183.022Z" fill="#263238"/>
<path d="M306.734 183.545C306.732 183.575 306.735 183.605 306.745 183.634C306.754 183.663 306.769 183.69 306.789 183.713C306.809 183.736 306.833 183.755 306.86 183.769C306.887 183.783 306.916 183.791 306.947 183.793C307.006 183.793 307.063 183.77 307.106 183.728C307.149 183.687 307.174 183.63 307.176 183.57C307.176 183.541 307.171 183.512 307.16 183.485C307.148 183.458 307.132 183.433 307.112 183.413C307.091 183.392 307.067 183.376 307.04 183.364C307.013 183.353 306.984 183.348 306.955 183.348C306.926 183.348 306.897 183.353 306.871 183.364C306.844 183.376 306.819 183.392 306.799 183.413C306.778 183.433 306.762 183.458 306.751 183.485C306.74 183.512 306.734 183.541 306.734 183.57V183.545Z" fill="#263238"/>
<path d="M307.78 183.416L307.746 184.761L307.04 184.547L307.78 183.416Z" fill="#F28F8F"/>
<path d="M308.75 186.448C309.32 186.38 310.451 186.037 310.664 185.592C310.592 185.826 310.449 186.033 310.256 186.183C309.784 186.462 309.278 186.678 308.75 186.825V186.448Z" fill="#F28F8F"/>
<path d="M312.765 193.806L311.217 195.922L312.17 195.433L312.765 193.806Z" fill="#E0E0E0"/>
<path d="M238.486 230.535C238.867 228.405 238.976 226.234 238.809 224.076C238.805 224.026 238.785 223.978 238.752 223.939C238.719 223.9 238.675 223.874 238.625 223.862C238.576 223.851 238.524 223.855 238.478 223.875C238.431 223.895 238.392 223.93 238.367 223.974L236.725 227.04C236.725 227.04 236.529 229.284 236.325 230.817C236.176 232.215 235.891 233.595 235.475 234.937C235.401 235.128 235.262 235.286 235.083 235.383C234.689 235.614 234.33 235.903 234.02 236.239C233.731 236.505 233.492 236.556 233.527 236.651C233.57 236.755 233.651 236.839 233.754 236.885C233.857 236.931 233.973 236.936 234.079 236.899C234.316 236.826 234.542 236.722 234.751 236.591C234.565 236.998 234.312 237.372 234.003 237.695C233.297 238.441 233.237 238.92 234.53 239.032C235.338 239.1 236.027 238.646 236.776 236.89C237.063 236.249 237.305 235.588 237.499 234.912C238.001 233.164 238.273 231.605 238.486 230.535Z" fill="#B16668"/>
<path d="M246.167 254.861C246.167 254.861 246.269 254.861 246.584 255.058C246.941 255.282 247.253 255.573 247.503 255.914C247.537 256.163 247.518 256.416 247.447 256.656C247.377 256.897 247.257 257.12 247.094 257.31C246.775 257.795 246.606 258.365 246.61 258.946C246.582 259.321 246.477 259.687 246.302 260.019C246.126 260.35 245.883 260.642 245.589 260.874C245.061 261.242 244.415 261.619 244.117 261.525C243.819 261.43 243.802 261.062 244.177 259.435C244.489 258.362 244.711 257.264 244.84 256.154L246.167 254.861Z" fill="#263238"/>
<path d="M245.938 254.552L246.286 255.023C246.341 255.096 246.38 255.179 246.399 255.268C246.418 255.357 246.417 255.449 246.397 255.537C246.345 255.855 246.182 256.143 245.938 256.351C245.798 256.456 245.626 256.508 245.453 256.497C245.333 256.488 245.217 256.453 245.111 256.396C245.005 256.338 244.913 256.259 244.84 256.163L244.568 255.794L245.938 254.552Z" fill="#B16668"/>
<path d="M237.474 234.244L241.404 238.201H241.293L240.391 245.362C241.104 245.848 241.712 246.474 242.178 247.203C242.926 248.368 245.904 254.552 245.904 254.552C245.904 254.552 245.555 255.931 244.534 255.794C244.534 255.794 242.952 253.807 241.251 251.631C239.388 249.242 237.329 246.655 237.218 246.184C236.648 243.614 237.474 234.244 237.474 234.244Z" fill="#455A64"/>
<path d="M242.254 247.203C243.003 248.368 245.98 254.552 245.98 254.552C245.98 254.552 245.631 255.931 244.611 255.794C244.611 255.794 243.028 253.807 241.327 251.631L242.254 247.203Z" fill="#37474F"/>
<path d="M241.939 258.964C241.499 258.529 241.005 258.155 240.468 257.85C240.207 257.833 239.946 257.833 239.685 257.85C239.451 257.85 239.217 257.824 238.988 257.773C238.518 257.601 238.063 257.392 237.627 257.148C237.441 257.034 237.241 256.947 237.031 256.891C236.665 256.822 236.376 256.814 236.249 257.225C236.209 257.349 236.195 257.48 236.206 257.61C236.201 257.991 236.287 258.368 236.455 258.709C236.624 259.05 236.871 259.346 237.176 259.572C237.457 259.76 237.831 259.906 238.129 260.077C238.582 260.266 239.017 260.495 239.43 260.762C240.043 261.293 240.612 261.816 241.472 261.473C241.643 261.424 241.799 261.333 241.925 261.207C242.051 261.081 242.144 260.925 242.195 260.754C242.314 260.3 241.888 259.443 241.939 258.964Z" fill="#263238"/>
<path d="M237.516 233.627L245.938 234.483C246.167 236.931 245.957 239.4 245.317 241.773C244.636 244.848 243.879 248.077 243.879 248.077C244.242 249.265 244.269 250.532 243.956 251.734C243.301 253.884 242.084 259.597 242.084 259.597C241.697 258.775 241.017 258.13 240.179 257.79C240.179 257.79 240.485 254.783 240.672 252.608C240.859 250.432 240.97 248.616 241.038 247.272C241.148 245.13 241.455 238.166 241.455 238.166H241.344C241.344 238.166 238.035 236.59 237.491 234.209L237.516 233.627Z" fill="#455A64"/>
<path d="M241.404 238.201C240.452 237.756 239.567 237.18 238.775 236.488L240.825 238.415L240.451 244.865L241.404 238.201Z" fill="#37474F"/>
<path d="M240.604 223.134C239.353 223.134 237.856 223.537 237.261 224.693C236.73 226.162 236.373 227.688 236.198 229.241C236.198 229.241 236.665 230.261 238.418 230.141L240.604 223.134Z" fill="#263238"/>
<path d="M248.728 232.428C248.379 228.804 247.077 226.158 246.924 225.25L245.87 229.73C246.219 230.912 246.503 232.113 246.72 233.327C246.979 234.708 247.104 236.111 247.094 237.516C247.079 237.719 246.991 237.911 246.848 238.055C246.536 238.393 246.277 238.777 246.082 239.194C245.878 239.537 245.665 239.648 245.725 239.734C245.796 239.82 245.897 239.876 246.008 239.89C246.118 239.904 246.23 239.876 246.32 239.811C246.526 239.672 246.715 239.508 246.882 239.323C246.824 239.765 246.698 240.196 246.508 240.599C246.048 241.516 246.125 242.004 247.358 241.73C248.158 241.558 248.685 240.925 248.898 239.023C248.987 238.324 249.03 237.62 249.025 236.916C248.974 235.092 248.83 233.515 248.728 232.428Z" fill="#B16668"/>
<path d="M243.164 223.211C244.645 223.571 246.669 224.068 247.256 225.661C247.743 227.203 248.149 228.77 248.473 230.355C248.149 230.67 247.756 230.902 247.325 231.031C246.894 231.161 246.439 231.184 245.997 231.1L245.657 229.892L245.938 234.509C244.781 235.785 239.983 236.111 237.474 234.244C237.474 234.244 237.907 227.391 237.907 226.115C237.883 225.739 237.935 225.363 238.058 225.008C238.182 224.652 238.375 224.326 238.627 224.048C238.879 223.769 239.183 223.545 239.523 223.388C239.863 223.231 240.23 223.145 240.604 223.134L243.164 223.211Z" fill="#37474F"/>
<path d="M245.657 229.892L244.908 227.528L245.725 231.066L245.657 229.892Z" fill="#263238"/>
<path d="M243.717 216.564C243.851 216.55 243.985 216.565 244.112 216.61C244.239 216.654 244.354 216.726 244.449 216.821C244.764 217.147 244.696 217.746 244.449 219.117L243.479 219.228L243.717 216.564Z" fill="#263238"/>
<path d="M238.069 216.17C237.858 216.171 237.65 216.127 237.457 216.042C237.159 215.871 237.082 216.213 237.244 216.505C237.352 216.718 237.513 216.899 237.711 217.031C237.909 217.163 238.138 217.242 238.375 217.258L238.647 216.496L238.069 216.17Z" fill="#263238"/>
<path d="M243.267 219.228C243.411 219.314 243.615 219.04 243.794 218.851C243.863 218.77 243.952 218.708 244.052 218.671C244.152 218.635 244.26 218.624 244.365 218.641C244.47 218.659 244.569 218.703 244.652 218.77C244.735 218.836 244.8 218.923 244.84 219.023C245.129 219.648 244.457 220.479 244.066 220.736C243.957 220.831 243.821 220.889 243.677 220.901C243.534 220.914 243.39 220.88 243.267 220.804L243.164 223.194C242.988 223.576 242.722 223.909 242.388 224.163C242.054 224.417 241.664 224.584 241.25 224.65C239.855 224.847 240.145 223.691 240.604 223.117V222.26C240.258 222.336 239.901 222.353 239.549 222.312C239.145 222.017 238.833 221.613 238.647 221.147C238.052 219.962 237.922 218.595 238.282 217.318C238.775 215.177 241.063 215.108 242.424 215.973C243.785 216.839 243.267 219.228 243.267 219.228Z" fill="#B16668"/>
<path d="M243.267 219.477C243.335 219.477 243.607 219.014 243.794 218.851C243.981 218.689 243.717 216.564 243.717 216.564C243.787 216.344 243.802 216.111 243.76 215.883C243.719 215.656 243.622 215.443 243.479 215.263C242.986 214.749 242.042 214.834 241.344 214.809C240.491 214.815 239.646 214.646 238.86 214.312C237.873 213.875 237.797 213.824 237.678 214.26C237.581 214.62 237.568 214.998 237.641 215.363C237.713 215.729 237.868 216.072 238.095 216.367L238.418 216.898C238.787 217.12 239.205 217.243 239.634 217.258C240.545 217.252 241.451 217.113 242.322 216.847C242.586 216.847 242.646 217.07 242.79 217.789C242.935 218.509 243.02 219.468 243.267 219.477Z" fill="#263238"/>
<path d="M243.717 216.727L244.568 216.256C244.541 216.197 244.502 216.144 244.454 216.101C244.406 216.057 244.349 216.024 244.288 216.003C244.227 215.982 244.162 215.974 244.097 215.979C244.033 215.985 243.97 216.003 243.913 216.033C243.798 216.102 243.714 216.212 243.677 216.341C243.641 216.47 243.655 216.608 243.717 216.727Z" fill="#263238"/>
<path d="M240.604 222.269C241.199 222.154 241.783 221.984 242.348 221.764C242.612 221.626 242.828 221.411 242.969 221.147C242.901 221.41 242.783 221.658 242.62 221.875C242.288 222.303 240.604 222.612 240.604 222.612V222.269Z" fill="#9A4A4D"/>
<path d="M240.553 219.185C240.553 219.256 240.581 219.323 240.63 219.373C240.68 219.423 240.747 219.451 240.817 219.451C240.88 219.44 240.936 219.406 240.977 219.357C241.018 219.308 241.041 219.246 241.041 219.181C241.041 219.117 241.018 219.055 240.977 219.005C240.936 218.956 240.88 218.923 240.817 218.911C240.781 218.911 240.746 218.919 240.714 218.932C240.681 218.946 240.652 218.967 240.627 218.992C240.602 219.018 240.583 219.048 240.571 219.081C240.558 219.114 240.552 219.15 240.553 219.185Z" fill="#263238"/>
<path d="M240.842 218.2L241.395 218.509C241.432 218.431 241.439 218.342 241.414 218.259C241.389 218.177 241.333 218.107 241.259 218.063C241.223 218.043 241.183 218.03 241.142 218.026C241.101 218.022 241.06 218.027 241.021 218.04C240.982 218.053 240.945 218.074 240.915 218.101C240.884 218.129 240.859 218.163 240.842 218.2Z" fill="#263238"/>
<path d="M240.723 220.898L240.128 221.121C240.156 221.201 240.215 221.267 240.292 221.304C240.368 221.341 240.456 221.346 240.536 221.318C240.615 221.286 240.678 221.224 240.713 221.146C240.748 221.068 240.751 220.979 240.723 220.898Z" fill="#9A4A4D"/>
<path d="M238.256 218.415L238.767 218.029C238.743 217.994 238.712 217.965 238.677 217.942C238.641 217.92 238.602 217.905 238.56 217.898C238.519 217.892 238.476 217.894 238.436 217.905C238.395 217.915 238.357 217.934 238.324 217.961C238.257 218.013 238.213 218.09 238.2 218.174C238.188 218.258 238.208 218.345 238.256 218.415Z" fill="#263238"/>
<path d="M238.418 219.108C238.418 219.176 238.445 219.242 238.493 219.29C238.54 219.338 238.605 219.365 238.673 219.365C238.741 219.365 238.806 219.338 238.853 219.29C238.901 219.242 238.928 219.176 238.928 219.108C238.929 219.073 238.924 219.039 238.911 219.006C238.899 218.973 238.881 218.943 238.857 218.918C238.833 218.893 238.805 218.872 238.773 218.858C238.742 218.843 238.708 218.835 238.673 218.834C238.638 218.835 238.604 218.843 238.573 218.858C238.541 218.872 238.513 218.893 238.489 218.918C238.465 218.943 238.447 218.973 238.435 219.006C238.422 219.039 238.417 219.073 238.418 219.108Z" fill="#263238"/>
<path d="M239.634 219.074L239.872 220.624L239.022 220.522L239.634 219.074Z" fill="#9A4A4D"/>
<path d="M117.88 216.265C116.806 216.265 115.776 215.835 115.017 215.071C114.257 214.306 113.831 213.269 113.831 212.188V212.016C113.831 211.108 114.189 210.236 114.827 209.594C115.465 208.951 116.331 208.59 117.233 208.59H118.467C119.369 208.59 120.235 208.951 120.873 209.594C121.511 210.236 121.869 211.108 121.869 212.016V212.188C121.869 213.259 121.451 214.287 120.705 215.05C119.958 215.812 118.943 216.249 117.88 216.265Z" fill="#263238"/>
<path d="M120.883 224.625C120.347 221.892 119.317 218.877 119.368 217.515L120.16 217.567C120.632 217.597 121.081 217.788 121.431 218.109C121.782 218.43 122.014 218.86 122.091 219.331C122.371 221.113 122.805 223.828 122.941 224.941C123.118 226.332 123.423 227.702 123.851 229.036C123.924 229.227 124.067 229.384 124.251 229.473C124.64 229.709 124.994 229.997 125.306 230.329C125.595 230.595 125.833 230.646 125.799 230.74C125.756 230.845 125.674 230.929 125.572 230.975C125.469 231.021 125.353 231.026 125.246 230.989C125.012 230.912 124.786 230.808 124.574 230.68C124.761 231.088 125.014 231.461 125.323 231.785C126.029 232.53 126.089 233.01 124.796 233.121C123.945 233.19 123.298 232.736 122.55 230.98C122.263 230.339 122.021 229.677 121.827 229.001C121.41 227.254 121.095 225.704 120.883 224.625Z" fill="#B16668"/>
<path d="M119.037 217.472C119.786 217.4 120.541 217.521 121.231 217.824C121.511 217.987 121.745 218.218 121.911 218.497C122.078 218.775 122.172 219.092 122.184 219.417C122.346 220.222 122.609 222.338 122.609 222.338C122.609 222.338 122.167 223.314 120.202 222.912L119.037 217.472Z" fill="#263238"/>
<path d="M113.431 248.959C113.431 248.959 113.329 248.959 113.014 249.156C112.657 249.38 112.345 249.671 112.095 250.013C112.062 250.261 112.081 250.514 112.151 250.755C112.222 250.995 112.342 251.218 112.504 251.409C112.823 251.893 112.992 252.463 112.988 253.045C113.016 253.42 113.121 253.785 113.297 254.117C113.472 254.449 113.715 254.74 114.009 254.972C114.537 255.34 115.192 255.717 115.481 255.623C115.77 255.529 115.796 255.16 115.421 253.533C115.109 252.46 114.887 251.363 114.758 250.252L113.431 248.959Z" fill="#263238"/>
<path d="M113.661 248.651L113.312 249.122C113.257 249.194 113.218 249.277 113.199 249.366C113.18 249.455 113.181 249.547 113.201 249.636C113.253 249.953 113.416 250.242 113.661 250.449C113.8 250.555 113.972 250.606 114.145 250.595C114.265 250.586 114.382 250.552 114.487 250.494C114.593 250.436 114.685 250.357 114.758 250.261L115.03 249.893L113.661 248.651Z" fill="#B16668"/>
<path d="M121.929 228.479L119.896 229.25L118.195 232.299H118.305L119.207 239.46C118.494 239.946 117.886 240.572 117.42 241.302C116.672 242.466 113.695 248.651 113.695 248.651C113.695 248.651 114.043 250.03 115.064 249.893C115.064 249.893 116.646 247.905 118.348 245.73C119.799 243.997 121.145 242.178 122.38 240.282C123.162 237.507 121.929 228.479 121.929 228.479Z" fill="#940C35"/>
<path d="M117.386 241.302C116.638 242.466 113.66 248.651 113.66 248.651C113.66 248.651 114.009 250.03 115.03 249.893C115.03 249.893 116.612 247.905 118.314 245.73L117.386 241.302Z" fill="#940C35"/>
<path opacity="0.2" d="M117.386 241.302C116.638 242.466 113.66 248.651 113.66 248.651C113.66 248.651 114.009 250.03 115.03 249.893C115.03 249.893 116.612 247.905 118.314 245.73L117.386 241.302Z" fill="black"/>
<path d="M117.633 253.088C118.123 252.715 118.661 252.412 119.232 252.188C119.494 252.194 119.756 252.217 120.015 252.257C120.247 252.282 120.481 252.282 120.712 252.257C121.202 252.15 121.683 252.004 122.15 251.82C122.349 251.729 122.562 251.671 122.78 251.649C123.145 251.649 123.435 251.649 123.511 252.077C123.533 252.207 123.533 252.34 123.511 252.471C123.471 252.85 123.341 253.215 123.132 253.534C122.923 253.852 122.642 254.117 122.312 254.304C122.014 254.449 121.623 254.552 121.308 254.672C120.832 254.799 120.368 254.968 119.921 255.178C119.249 255.614 118.611 256.034 117.812 255.606C117.648 255.537 117.505 255.426 117.396 255.285C117.287 255.144 117.217 254.977 117.191 254.801C117.08 254.304 117.625 253.542 117.633 253.088Z" fill="#263238"/>
<path d="M121.682 228.102L113.805 228.607C113.244 230.415 113.252 232.034 113.873 235.546C114.321 237.807 114.935 240.031 115.711 242.201C115.352 243.394 115.334 244.664 115.66 245.867C116.306 248.017 117.539 253.456 117.539 253.456C118.112 252.918 118.778 252.492 119.505 252.197C119.505 252.197 119.122 248.916 118.935 246.741C118.747 244.565 118.637 242.749 118.569 241.404C118.458 239.263 118.152 232.299 118.152 232.299H118.263C118.263 232.299 121.146 231.237 121.665 228.873L121.682 228.102Z" fill="#940C35"/>
<path opacity="0.2" d="M118.16 232.299C119.111 231.853 119.995 231.276 120.789 230.586L118.747 232.513L119.113 238.963L118.16 232.299Z" fill="black"/>
<path d="M111.1 226.517C111.393 224.103 111.83 221.709 112.41 219.348C112.472 218.999 112.641 218.678 112.892 218.429C113.144 218.181 113.466 218.017 113.814 217.961C116.051 219.177 116.034 220.796 114.128 222.74C114.128 222.74 113.329 225.892 113.082 227.425C112.823 228.806 112.697 230.209 112.708 231.614C112.723 231.818 112.811 232.009 112.954 232.154C113.267 232.491 113.525 232.875 113.72 233.293C113.924 233.635 114.137 233.747 114.077 233.832C114.006 233.918 113.905 233.974 113.795 233.988C113.684 234.003 113.573 233.974 113.482 233.909C113.276 233.77 113.087 233.606 112.92 233.421C112.987 233.862 113.122 234.29 113.32 234.689C113.78 235.605 113.703 236.085 112.47 235.82C111.67 235.648 111.143 235.014 110.93 233.113C110.84 232.414 110.798 231.71 110.802 231.006C110.853 229.19 110.998 227.614 111.1 226.517Z" fill="#B16668"/>
<path d="M116.229 217.558L113.814 217.961C116.051 219.545 114.128 222.74 114.128 222.74L115.319 226.072C114.728 226.873 114.224 227.734 113.814 228.642C114.545 229.284 118.918 230.8 121.929 228.513C121.929 228.513 121.759 227.305 121.401 225.481C122.014 222.517 122.184 221.472 122.005 220.779C121.504 218.826 120.355 217.584 119.045 217.507L116.229 217.558Z" fill="#455A64"/>
<path d="M120.61 210.209C121.036 210.466 121.563 211.545 121.512 213.815C121.47 215.742 120.849 216.222 120.534 216.385C120.041 216.484 119.532 216.47 119.045 216.342V217.472C119.045 217.472 119.845 218.415 119.794 218.946C119.743 219.477 118.637 219.605 117.88 219.083C117.332 218.658 116.86 218.143 116.485 217.558V214.903C116.485 214.903 116.144 215.237 115.557 214.731C115.324 214.563 115.166 214.308 115.116 214.023C115.067 213.738 115.131 213.445 115.294 213.207C115.392 213.12 115.509 213.056 115.635 213.022C115.762 212.988 115.894 212.983 116.023 213.009C116.151 213.034 116.272 213.09 116.376 213.17C116.479 213.25 116.563 213.354 116.621 213.472C117.386 213.441 118.132 213.217 118.79 212.821C119.277 212.562 119.695 212.189 120.012 211.735C120.328 211.281 120.533 210.758 120.61 210.209Z" fill="#B16668"/>
<path d="M119.368 213.335C119.368 213.382 119.355 213.428 119.329 213.467C119.304 213.506 119.267 213.536 119.225 213.555C119.182 213.573 119.135 213.579 119.09 213.571C119.044 213.563 119.002 213.542 118.968 213.51C118.934 213.478 118.91 213.437 118.899 213.392C118.888 213.346 118.89 213.299 118.906 213.255C118.921 213.211 118.949 213.172 118.986 213.144C119.023 213.116 119.067 213.099 119.113 213.095C119.146 213.094 119.178 213.1 119.208 213.111C119.239 213.122 119.266 213.14 119.29 213.162C119.314 213.184 119.333 213.211 119.346 213.241C119.36 213.271 119.367 213.303 119.368 213.335Z" fill="#263238"/>
<path d="M119.436 214.971L119.989 215.143C119.98 215.181 119.962 215.217 119.938 215.248C119.914 215.279 119.884 215.305 119.85 215.324C119.816 215.344 119.778 215.356 119.739 215.36C119.7 215.364 119.661 215.36 119.624 215.348C119.549 215.323 119.488 215.269 119.453 215.198C119.418 215.128 119.412 215.046 119.436 214.971Z" fill="#9A4A4D"/>
<path d="M121.342 212.59L120.857 212.256C120.876 212.222 120.902 212.193 120.933 212.17C120.964 212.146 121 212.13 121.038 212.122C121.076 212.114 121.115 212.114 121.152 212.123C121.19 212.131 121.226 212.147 121.257 212.17C121.322 212.216 121.368 212.285 121.384 212.363C121.399 212.441 121.385 212.523 121.342 212.59Z" fill="#263238"/>
<path d="M121.231 213.19C121.238 213.226 121.237 213.263 121.228 213.298C121.219 213.333 121.202 213.366 121.179 213.394C121.156 213.422 121.127 213.445 121.094 213.46C121.061 213.476 121.025 213.484 120.989 213.484C120.953 213.484 120.917 213.476 120.884 213.46C120.851 213.445 120.822 213.422 120.799 213.394C120.776 213.366 120.759 213.333 120.75 213.298C120.741 213.263 120.74 213.226 120.746 213.19C120.744 213.158 120.748 213.125 120.759 213.095C120.769 213.064 120.786 213.036 120.807 213.012C120.828 212.988 120.854 212.969 120.884 212.955C120.913 212.941 120.944 212.934 120.976 212.933C121.01 212.932 121.044 212.937 121.075 212.95C121.107 212.962 121.135 212.981 121.159 213.005C121.183 213.029 121.202 213.058 121.214 213.09C121.227 213.122 121.233 213.156 121.231 213.19Z" fill="#263238"/>
<path d="M120.091 213.018L120.134 214.475L120.891 214.243L120.091 213.018Z" fill="#9A4A4D"/>
<path d="M119.037 216.316C118.416 216.23 117.157 215.862 116.961 215.365C117.037 215.621 117.192 215.847 117.403 216.008C117.915 216.311 118.464 216.545 119.037 216.701V216.316Z" fill="#9A4A4D"/>
<path d="M114.681 224.299L116.366 226.595L115.319 226.072L114.681 224.299Z" fill="#263238"/>
<path d="M115.226 208.17C115.545 208.353 115.801 208.629 115.96 208.962C116.118 209.296 116.171 209.67 116.112 210.035C116.053 210.399 115.884 210.737 115.628 211.002C115.372 211.267 115.042 211.447 114.681 211.517C114.321 211.587 113.948 211.544 113.612 211.394C113.277 211.245 112.995 210.995 112.805 210.678C112.615 210.362 112.526 209.995 112.55 209.626C112.573 209.257 112.709 208.905 112.937 208.616C113.191 208.262 113.569 208.019 113.994 207.936C114.419 207.854 114.86 207.937 115.226 208.17Z" fill="#263238"/>
<path d="M113.805 217.961C113.456 218.046 112.563 217.961 112.104 219.742C111.644 221.524 111.355 223.237 111.355 223.237C111.665 223.594 112.071 223.853 112.524 223.982C112.977 224.111 113.457 224.105 113.907 223.965C113.907 223.965 114.486 222.183 114.86 221.01C115.234 219.836 115.03 218.389 113.805 217.961Z" fill="#263238"/>
<path d="M55.0247 188.795C54.6688 186.801 54.5659 184.769 54.7185 182.748C54.7205 182.699 54.7385 182.652 54.7697 182.614C54.8009 182.577 54.8436 182.551 54.891 182.54C54.9385 182.529 54.9882 182.534 55.0323 182.555C55.0765 182.576 55.1127 182.61 55.1353 182.654L56.675 185.523C56.675 185.523 56.8536 187.63 57.0493 189.069C57.184 190.377 57.449 191.669 57.8404 192.924C57.9087 193.103 58.0384 193.252 58.2062 193.343C58.5769 193.562 58.9124 193.837 59.2015 194.157C59.4737 194.405 59.6948 194.457 59.6693 194.543C59.6263 194.639 59.5495 194.715 59.4538 194.758C59.358 194.801 59.25 194.806 59.1504 194.774C58.9277 194.705 58.7136 194.61 58.5124 194.491C58.6922 194.869 58.9305 195.216 59.2185 195.519C59.882 196.221 59.9415 196.675 58.7251 196.778C57.9595 196.847 57.3215 196.418 56.6155 194.774C56.3489 194.17 56.1216 193.549 55.9349 192.915C55.5181 191.262 55.2289 189.806 55.0247 188.795Z" fill="#B85C5B"/>
<path d="M53.0427 181.866C54.2081 181.866 55.5947 182.243 56.1731 183.322C56.6702 184.705 57.0043 186.143 57.1684 187.605C57.1684 187.605 56.726 188.564 55.0928 188.461L53.0427 181.866Z" fill="#940C35"/>
<path opacity="0.2" d="M53.0427 181.866C54.2081 181.866 55.5947 182.243 56.1731 183.322C56.6702 184.705 57.0043 186.143 57.1684 187.605C57.1684 187.605 56.726 188.564 55.0928 188.461L53.0427 181.866Z" fill="black"/>
<path d="M43.728 210.783C43.4388 210.637 43.2516 211.005 42.9879 211.305C42.759 211.521 42.5841 211.788 42.4775 212.085C42.4835 212.319 42.5399 212.549 42.6427 212.759C42.7455 212.969 42.8923 213.154 43.073 213.301C43.2857 213.433 43.4704 213.606 43.6163 213.811C43.7623 214.015 43.8668 214.246 43.9237 214.491C43.9544 214.8 44.0726 215.093 44.2641 215.336C44.4556 215.579 44.7124 215.762 45.004 215.862C45.3381 216.003 45.6966 216.075 46.0588 216.075C46.421 216.075 46.7795 216.003 47.1136 215.862C47.5219 215.596 47.1136 215.305 46.5777 214.483C45.8376 213.412 45.2592 212.641 45.2592 211.639L43.728 210.783Z" fill="#263238"/>
<path d="M44.3235 209.909L43.711 210.808C43.6457 210.9 43.5992 211.005 43.5741 211.115C43.549 211.225 43.5459 211.339 43.5649 211.451C43.5839 211.562 43.6246 211.669 43.6847 211.764C43.7448 211.86 43.8231 211.943 43.9151 212.008C44.1004 212.119 44.3188 212.161 44.5319 212.127C44.745 212.092 44.9392 211.983 45.0805 211.819L46.0418 210.774L44.3235 209.909Z" fill="#B85C5B"/>
<path d="M55.5692 192.273C55.5692 193.429 55.2799 198.08 54.4888 200.136C53.6977 202.192 53.2469 203.476 53.0002 203.905C52.7535 204.333 45.5909 211.357 45.5909 211.357C45.2497 211.328 44.9272 211.187 44.6724 210.957C44.4176 210.727 44.2443 210.419 44.1789 210.08C44.1789 210.08 47.1136 205.052 47.7516 204.025C48.5895 203.025 49.5598 202.146 50.6353 201.412L50.4312 192.41L55.5692 192.273Z" fill="#37474F"/>
<path d="M53.9957 216.799L55.5056 216.455L55.0055 214.233L53.4956 214.577L53.9957 216.799Z" fill="#B85C5B"/>
<path d="M55.5691 192.273H48.3045C48.1486 193.343 48.0577 194.421 48.0323 195.502C47.9728 198.671 50.9075 204.427 50.9075 204.427C50.762 205.708 50.8252 207.004 51.0947 208.264C51.771 210.573 52.569 212.843 53.485 215.065C53.7768 215.109 54.0746 215.089 54.3579 215.006C54.6413 214.923 54.9035 214.78 55.1268 214.586C55.1268 214.586 54.1571 205.909 53.8934 203.682C53.6126 201.275 52.8896 196.881 52.8896 196.881C53.3688 196.398 53.8044 195.874 54.1911 195.313C54.8632 194.412 55.3333 193.375 55.5691 192.273Z" fill="#37474F"/>
<path d="M45.4208 190.568C45.7526 187.185 46.969 184.701 47.1221 183.844L48.1174 188.041C47.7706 189.152 47.4866 190.282 47.2667 191.425C47.0213 192.718 46.9016 194.032 46.9095 195.348C46.9261 195.537 47.0108 195.714 47.1477 195.845C47.4457 196.161 47.6925 196.522 47.8792 196.915C48.0749 197.232 48.2705 197.344 48.2195 197.412C48.1528 197.494 48.0579 197.547 47.9538 197.561C47.8497 197.576 47.7441 197.55 47.658 197.489C47.4655 197.355 47.2886 197.2 47.1306 197.027C47.1909 197.441 47.3173 197.843 47.5049 198.217C47.9388 199.074 47.8707 199.536 46.6543 199.279C45.9057 199.117 45.4123 198.526 45.2167 196.71C45.1301 196.054 45.0903 195.393 45.0976 194.731C45.1911 193.078 45.3272 191.596 45.4208 190.568Z" fill="#B85C5B"/>
<path d="M50.6438 181.934C49.2488 182.277 47.3518 182.714 46.7989 184.23C46.3459 185.677 45.9655 187.147 45.659 188.632C45.9636 188.926 46.3328 189.142 46.7364 189.264C47.14 189.386 47.5666 189.411 47.9813 189.335L48.3045 188.196V192.273C49.3934 193.472 53.1873 194.029 55.5691 192.273V184.658C55.5922 184.304 55.5437 183.949 55.4264 183.614C55.3092 183.28 55.1257 182.973 54.8871 182.712C54.6485 182.45 54.3597 182.241 54.0383 182.095C53.7169 181.95 53.3695 181.872 53.0172 181.866L50.6438 181.934Z" fill="#940C35"/>
<path opacity="0.2" d="M48.3045 188.196L49.0021 185.986L48.3045 189.189V188.196Z" fill="black"/>
<path d="M55.8243 176.812C55.8294 177.247 55.706 177.673 55.4698 178.037C55.2336 178.401 54.8953 178.686 54.4979 178.856C54.1004 179.026 53.6618 179.073 53.2377 178.991C52.8136 178.91 52.4232 178.703 52.1161 178.397C51.809 178.092 51.599 177.701 51.5129 177.275C51.4268 176.849 51.4684 176.407 51.6324 176.005C51.7965 175.602 52.0756 175.258 52.4342 175.016C52.7929 174.774 53.2149 174.645 53.6467 174.645C54.2198 174.645 54.7699 174.872 55.1776 175.278C55.5852 175.684 55.8176 176.235 55.8243 176.812Z" fill="#263238"/>
<path d="M50.1164 175.707C49.9925 175.694 49.8673 175.709 49.7497 175.751C49.6321 175.792 49.525 175.859 49.4359 175.947C49.1382 176.255 49.2062 176.804 49.4359 178.097L50.3461 178.208L50.1164 175.707Z" fill="#263238"/>
<path d="M50.5418 178.208C50.4142 178.285 50.2185 178.028 50.0484 177.849C49.9825 177.774 49.8991 177.718 49.8058 177.685C49.7125 177.652 49.6124 177.643 49.5148 177.659C49.4172 177.675 49.3253 177.716 49.2475 177.778C49.1698 177.839 49.1088 177.92 49.0701 178.011C48.7979 178.594 49.4189 179.373 49.7932 179.63C49.8941 179.721 50.0214 179.777 50.1562 179.789C50.2911 179.802 50.4263 179.77 50.5418 179.699L50.6438 181.934C50.8067 182.293 51.055 182.606 51.3666 182.845C51.6782 183.084 52.0435 183.242 52.4302 183.305C53.7402 183.485 53.468 182.397 53.0427 181.866V181.052C53.3696 181.123 53.7056 181.14 54.038 181.103C54.4162 180.824 54.7106 180.444 54.8886 180.007C55.4448 178.896 55.5691 177.616 55.2374 176.418C54.7695 174.414 52.6259 174.354 51.3499 175.159C50.0739 175.964 50.5418 178.208 50.5418 178.208Z" fill="#B85C5B"/>
<path d="M50.5418 178.431C50.4822 178.431 50.2185 178.003 50.0484 177.848C49.8783 177.694 50.1164 175.707 50.1164 175.707C50.0537 175.501 50.0418 175.282 50.0819 175.07C50.1219 174.858 50.2126 174.66 50.3461 174.491C50.8055 174.003 51.6987 174.088 52.3452 174.063C53.3209 174.013 54.299 174.035 55.2714 174.131C55.4356 174.127 55.5946 174.189 55.7138 174.302C55.7535 174.369 55.7786 174.443 55.7874 174.52C55.7962 174.596 55.7885 174.674 55.7648 174.748C55.6744 175.178 55.4483 175.567 55.1203 175.857C54.7922 176.148 54.3797 176.323 53.9444 176.358C53.0797 176.355 52.22 176.225 51.3924 175.973C51.1457 175.973 51.0947 176.178 50.9586 176.829C50.8225 177.48 50.7714 178.431 50.5418 178.431Z" fill="#263238"/>
<path d="M50.125 175.853L49.2743 175.416C49.3005 175.361 49.3373 175.313 49.3825 175.273C49.4277 175.233 49.4804 175.202 49.5375 175.183C49.5946 175.164 49.6549 175.156 49.7149 175.161C49.7748 175.166 49.8333 175.183 49.8868 175.21C50.0023 175.264 50.0921 175.362 50.1367 175.482C50.1813 175.603 50.1771 175.736 50.125 175.853Z" fill="#263238"/>
<path d="M53.0342 181.052C52.4797 180.944 51.9359 180.787 51.4094 180.581C51.1587 180.452 50.9537 180.249 50.8225 179.998C50.8851 180.247 50.998 180.481 51.1542 180.684C51.4605 181.086 53.0342 181.377 53.0342 181.377V181.052Z" fill="#F28F8F"/>
<path d="M53.0767 178.157C53.0834 178.193 53.0822 178.23 53.0731 178.265C53.064 178.3 53.0473 178.333 53.0242 178.361C53.001 178.389 52.972 178.412 52.9392 178.428C52.9064 178.443 52.8705 178.451 52.8343 178.451C52.798 178.451 52.7622 178.443 52.7294 178.428C52.6966 178.412 52.6676 178.389 52.6444 178.361C52.6213 178.333 52.6046 178.3 52.5955 178.265C52.5864 178.23 52.5851 178.193 52.5919 178.157C52.5851 178.121 52.5864 178.084 52.5955 178.049C52.6046 178.013 52.6213 177.98 52.6444 177.952C52.6676 177.924 52.6966 177.902 52.7294 177.886C52.7622 177.871 52.798 177.863 52.8343 177.863C52.8705 177.863 52.9064 177.871 52.9392 177.886C52.972 177.902 53.001 177.924 53.0242 177.952C53.0473 177.98 53.064 178.013 53.0731 178.049C53.0822 178.084 53.0834 178.121 53.0767 178.157Z" fill="#263238"/>
<path d="M52.8215 177.215L52.3026 177.506C52.2653 177.434 52.2568 177.35 52.279 177.272C52.3011 177.194 52.3522 177.127 52.4217 177.086C52.4561 177.067 52.494 177.055 52.5331 177.052C52.5722 177.048 52.6116 177.052 52.649 177.064C52.6864 177.076 52.721 177.096 52.7507 177.121C52.7803 177.147 52.8044 177.179 52.8215 177.215Z" fill="#263238"/>
<path d="M52.9321 179.784L53.485 179.99C53.4726 180.028 53.4527 180.063 53.4266 180.093C53.4005 180.123 53.3687 180.148 53.333 180.165C53.2974 180.183 53.2586 180.193 53.2189 180.195C53.1793 180.198 53.1396 180.192 53.1022 180.178C53.065 180.164 53.031 180.143 53.0022 180.115C52.9734 180.087 52.9504 180.054 52.9346 180.017C52.9187 179.981 52.9103 179.941 52.9099 179.901C52.9095 179.861 52.917 179.821 52.9321 179.784Z" fill="#F28F8F"/>
<path d="M55.2374 177.446L54.761 177.078C54.7831 177.045 54.8116 177.016 54.8449 176.995C54.8782 176.973 54.9156 176.959 54.9547 176.952C54.9937 176.946 55.0337 176.948 55.0721 176.957C55.1105 176.967 55.1465 176.985 55.1778 177.009C55.2388 177.062 55.2784 177.136 55.2894 177.216C55.3003 177.297 55.2818 177.378 55.2374 177.446Z" fill="#263238"/>
<path d="M55.1098 178.071C55.1165 178.107 55.1153 178.144 55.1062 178.179C55.0971 178.215 55.0804 178.248 55.0572 178.276C55.0341 178.304 55.0051 178.326 54.9723 178.342C54.9394 178.357 54.9036 178.365 54.8674 178.365C54.8311 178.365 54.7953 178.357 54.7625 178.342C54.7296 178.326 54.7006 178.304 54.6775 178.276C54.6543 178.248 54.6376 178.215 54.6285 178.179C54.6195 178.144 54.6182 178.107 54.6249 178.071C54.6182 178.035 54.6195 177.998 54.6285 177.963C54.6376 177.928 54.6543 177.895 54.6775 177.867C54.7006 177.839 54.7296 177.816 54.7625 177.8C54.7953 177.785 54.8311 177.777 54.8674 177.777C54.9036 177.777 54.9394 177.785 54.9723 177.8C55.0051 177.816 55.0341 177.839 55.0572 177.867C55.0804 177.895 55.0971 177.928 55.1062 177.963C55.1153 177.998 55.1165 178.035 55.1098 178.071Z" fill="#263238"/>
<path d="M53.9529 178.063L53.7232 179.51L54.5228 179.416L53.9529 178.063Z" fill="#F28F8F"/>
<path d="M55.331 215.708L55.2799 215.485C55.4415 215.485 56.1306 216.65 56.7941 217.147C57.4576 217.644 58.1721 218.003 58.4954 218.252C58.8186 218.5 58.2997 219.245 57.2109 219.305C56.5757 219.343 55.9433 219.194 55.3905 218.877C55.0843 218.594 54.8631 218.115 54.6249 217.901C54.3867 217.686 53.9018 217.515 53.7743 217.25C53.6711 216.977 53.6389 216.682 53.6807 216.393C53.6807 216.11 53.6807 215.793 53.7913 215.802V215.965C54.0756 216.11 54.3915 216.18 54.71 216.17C54.9822 216.196 55.4586 216.136 55.331 215.708Z" fill="#263238"/>
<path d="M53.7062 202.209C53.7062 202.209 53.0597 197.6 52.8555 196.881C53.3732 196.601 53.8534 196.255 54.2846 195.853C53.9853 196.285 53.6586 196.697 53.3064 197.087L53.7062 202.209Z" fill="#263238"/>
<path d="M49.8187 202.055C50.1315 202.868 50.4952 203.66 50.9075 204.427C50.9075 204.427 50.8225 205.909 50.8395 206.209L50.4312 206.56C50.4213 205.89 50.4811 205.221 50.6098 204.564C50.2571 203.759 49.9918 202.917 49.8187 202.055Z" fill="#263238"/>
</svg>
