<svg width="16" height="14" viewBox="0 0 16 14" fill="none" xmlns="http://www.w3.org/2000/svg">
<path d="M7.8763 0.638893L7.88844 0.771579V0.892201L7.93698 1.50738L7.94911 1.56769V1.628L7.96125 1.68831V1.74862L7.98552 1.86925V1.92956L8.00979 2.05018L8.02192 2.11049L8.04619 2.23112L8.05833 2.29143L8.07046 2.35174L8.17967 2.74979L8.21608 2.85835L8.22821 2.9066L8.26462 3.01516L8.28889 3.07548L8.31316 3.12373L8.33743 3.18404L8.3617 3.23229L8.38597 3.28053L8.41024 3.34085L8.4345 3.3891L8.47091 3.43734L8.49518 3.48559L8.53158 3.53384L8.55585 3.58209L8.59226 3.63034L8.61653 3.67859L8.6772 3.77509L8.70147 3.82334L8.77428 3.91984L8.79855 3.96809L8.83495 4.01633L8.87136 4.06458L8.98057 4.19727L9.01698 4.24552L9.05338 4.29377L9.17473 4.42645L9.21113 4.46264L9.29608 4.54708L9.39315 4.64357L9.41742 4.6677L9.45383 4.71595L9.50237 4.75213L9.53877 4.80038L9.58731 4.83657L9.67225 4.92101L9.72079 4.95719L9.90282 5.12607L9.99989 5.2105L10.1819 5.37937L10.5581 5.71712L10.643 5.80155L10.7401 5.88599L11.2862 6.40467L11.3226 6.45292L11.4197 6.54942L11.4561 6.59766L11.5046 6.64591L11.626 6.7786L11.6745 6.82685L11.7109 6.8751L11.7958 6.9716L11.8323 7.01985L11.8687 7.06809L11.9051 7.11634L11.9415 7.16459L12.0021 7.23697L12.0143 7.26109L12.0385 7.28522L12.0507 7.30934L12.0749 7.33346L12.1356 7.42996L12.1478 7.45409L12.1963 7.52646L12.2084 7.55059L12.2206 7.57471L12.2327 7.59883L12.2448 7.62296L12.2691 7.67121L12.2812 7.69533L12.2934 7.71946L12.3176 7.80389V7.82802L12.3419 7.88833V7.91245L12.354 7.94864L12.3662 7.99689L12.3783 8.03308L12.4147 8.26226V8.31051L12.4269 8.37082L12.439 8.55176V8.61207V8.67238V8.73269V8.793V9.01012V9.0825V9.58911V9.64942V9.77005V9.84242V9.90273L12.4633 10.156L12.4754 10.2164V10.2767L12.4875 10.337V10.3973L12.5239 10.5903L12.5361 10.6506L12.5482 10.7109L12.5603 10.7712L12.5725 10.8315L12.621 11.0125L12.6453 11.0728L12.6574 11.1331L12.7545 11.4226L12.7788 11.4829L12.7909 11.507V11.5191L12.803 11.5432L12.8273 11.5915L12.8516 11.6397L12.888 11.7L12.9122 11.7603L12.9487 11.8086L12.9608 11.8327L12.9729 11.8689L13.0457 12.0016L13.07 12.0257L13.0821 12.0498L13.0943 12.0739L13.1064 12.0981L13.1307 12.1222L13.1428 12.1463L13.1671 12.1704L13.1792 12.1946L13.2399 12.2669L13.2642 12.2911L13.3127 12.3634L13.3491 12.3996L13.3734 12.4238L13.434 12.4841L13.4826 12.5202L13.519 12.5564L13.6525 12.6771L13.701 12.7132L13.7495 12.7494L13.7981 12.7856L13.8466 12.8218L13.8952 12.858L13.9437 12.8942L14.1015 13.0027L14.2107 13.0631L14.2592 13.0992L14.3199 13.1354L14.3684 13.1716L14.4291 13.2078L14.5869 13.3043L14.6961 13.3646L14.8053 13.4249L15.0237 13.5455C15.0237 13.5455 15.0237 13.5455 15.0358 13.5455C15.0358 13.5455 15.048 13.5455 15.048 13.5335C15.048 13.5214 15.048 13.5214 15.048 13.5094H15.0358V7.59883C15.048 7.59883 15.048 7.58677 15.048 7.58677L15.0116 7.27315L14.9994 7.18872L14.9873 7.10428L14.9388 6.86304L14.9145 6.7786L14.9024 6.70623L14.866 6.54942L14.7689 6.2358L14.7325 6.16342L14.6961 6.09105L14.6597 6.01867L14.5869 5.87393L14.4655 5.65681L14.417 5.59649L14.3684 5.52412L14.3199 5.46381L14.2713 5.4035L14.2228 5.34319L14.1743 5.28288L14.1136 5.22256L14.0651 5.16225L14.0044 5.10194L13.8952 4.98132L13.8345 4.92101L13.7738 4.86069L13.7131 4.80038L13.6525 4.74007L13.5918 4.67976L13.4704 4.55914L13.4098 4.49883L13.3491 4.43851L13.2884 4.3782L13.2278 4.31789L12.9001 4.04046L12.7666 3.9319L12.621 3.82334L12.4875 3.71478L12.3783 3.58209L12.2327 3.47353L11.9536 3.26847L11.3833 2.88248L11.2376 2.78598L11.1042 2.68948L10.9585 2.59298L10.8251 2.50855L10.6916 2.42411L10.4246 2.25524L10.2911 2.1708L10.0242 2.00193L9.89068 1.9175L9.63585 1.74862L9.5145 1.66419L9.00484 1.33851L8.88349 1.25407L8.14327 0.783641L7.96125 0.663018L7.88844 0.626831H7.8763C7.8763 0.626831 7.86417 0.638893 7.8763 0.638893Z" fill="white"/>
<path d="M7.15317 0.632205L7.14169 0.765207V0.886119L7.09578 1.50277L7.0843 1.56322V1.62368L7.07282 1.68413V1.74459L7.04986 1.8655V1.92596L7.02691 2.04687L7.01543 2.10732L6.99247 2.22824L6.98099 2.28869L6.96952 2.34915L6.86621 2.74815L6.82029 2.85697L6.80882 2.90534L6.77438 3.01416L6.75142 3.07462L6.72847 3.12298L6.70551 3.18344L6.68255 3.2318L6.6596 3.28016L6.63664 3.34062L6.61368 3.38899L6.57925 3.43735L6.55629 3.48571L6.52185 3.53408L6.4989 3.58244L6.46446 3.63081L6.44151 3.67917L6.38411 3.7759L6.36116 3.82427L6.29229 3.921L6.26933 3.96936L6.23489 4.01772L6.18898 4.06609L6.08567 4.19909L6.05124 4.24746L6.0168 4.29582L5.90202 4.42882L5.86758 4.4651L5.78723 4.54973L5.69541 4.64646L5.67245 4.67065L5.63801 4.71901L5.5921 4.75528L5.54619 4.81574L5.50027 4.85201L5.41992 4.93665L5.37401 4.97292L5.21331 5.15429L5.12148 5.23893L4.94931 5.40821L4.59347 5.74676L4.51312 5.8314L4.4213 5.91603L3.90476 6.43595L3.87033 6.48432L3.7785 6.58105L3.74407 6.60523L3.69815 6.65359L3.58337 6.7866L3.53745 6.83496L3.50302 6.88332L3.42267 6.98005L3.38823 7.02842L3.3538 7.07678L3.31936 7.12515L3.28493 7.17351L3.22753 7.24606L3.21606 7.27024L3.1931 7.29442L3.18162 7.31861L3.15866 7.34279L3.10127 7.43952L3.08979 7.4637L3.04388 7.53625V7.57252L3.02092 7.5967V7.62088L3.00944 7.64507L2.98649 7.69343L2.97501 7.71761L2.96353 7.7418L2.94057 7.82643V7.85062L2.90614 7.92316V7.94734L2.89466 7.98362L2.88318 8.03198L2.8717 8.06826L2.83727 8.29799V8.34635L2.82579 8.40681L2.81431 8.58818V8.64863V8.70909V8.76954V8.83V9.02346V9.096V9.60383V9.66429V9.7852V9.85775V9.9182L2.79135 10.1721L2.77987 10.2326V10.293L2.7684 10.3535V10.4139L2.711 10.5953L2.69953 10.6558L2.68805 10.7162L2.67657 10.7767L2.66509 10.8371L2.61918 11.0185L2.59622 11.079L2.58474 11.1394L2.49291 11.4296L2.46996 11.49L2.45848 11.5142V11.5263L2.447 11.5505L2.42404 11.5989L2.40109 11.6472L2.36665 11.7077L2.34369 11.7681L2.30926 11.8165L2.29778 11.8407L2.2863 11.877L2.21743 11.9979L2.19447 12.0221L2.18299 12.0462L2.17152 12.0704L2.16004 12.0946L2.13708 12.1188L2.1256 12.143L2.10264 12.1672L2.09117 12.1913L2.03377 12.2639L2.01082 12.2881L1.9649 12.3606L1.93047 12.3969L1.90751 12.4211L1.85012 12.4815L1.8042 12.5178L1.76977 12.5541L1.64351 12.675L1.59759 12.7113L1.55168 12.7475L1.50576 12.7838L1.45985 12.8201L1.41394 12.8563L1.36802 12.8926L1.2188 13.0014L1.1155 13.0619L1.06958 13.0982L1.02367 13.1344L0.977755 13.1707L0.920363 13.207L0.771143 13.3037L0.667836 13.3642L0.56453 13.4246L0.357918 13.5455C0.357918 13.5455 0.357918 13.5455 0.346439 13.5455C0.346439 13.5455 0.334961 13.5455 0.334961 13.5335C0.334961 13.5214 0.334961 13.5214 0.334961 13.5093H0.346439V7.58461C0.334961 7.58461 0.334961 7.57252 0.334961 7.57252L0.369396 7.25815L0.380875 7.17351L0.403832 7.08887L0.449746 6.84705L0.472703 6.76241L0.484181 6.68987L0.518616 6.53268L0.610444 6.2304L0.64488 6.15786L0.679315 6.08531L0.702272 6.00067L0.771143 5.85558L0.885927 5.63794L0.931841 5.57748L0.966277 5.51703L1.01219 5.45657L1.0581 5.39611L1.10402 5.33566L1.14993 5.2752L1.20732 5.21475L1.25324 5.15429L1.31063 5.09384L1.41394 4.97292L1.47133 4.91247L1.52872 4.85201L1.58611 4.79156L1.64351 4.7311L1.7009 4.67065L1.81568 4.54973L1.87308 4.48928L1.93047 4.42882L1.98786 4.36837L2.04525 4.30791L2.35517 4.02982L2.48143 3.921L2.61918 3.81218L2.74544 3.70335L2.88318 3.60663L3.02092 3.49781L3.28493 3.29226L3.82441 2.90534L3.96216 2.80861L4.08842 2.71188L4.22616 2.61515L4.35242 2.53051L4.47869 2.44588L4.73121 2.26451L4.85748 2.17987L5.11 2.01059L5.23627 1.92596L5.47731 1.75668L5.5921 1.67204L6.07419 1.34558L6.18898 1.26094L6.88917 0.78939L7.06134 0.668478L7.13021 0.632205H7.14169C7.15317 0.620114 7.15317 0.632205 7.15317 0.632205Z" fill="white"/>
</svg>
