<svg width="16" height="18" viewBox="0 0 16 18" fill="none" xmlns="http://www.w3.org/2000/svg">
<path d="M13.1215 17.1294C13.0902 17.1277 13.0591 17.1245 13.0273 17.1245H11.9601M10.7777 17.1245H10.1345H5.5804M4.39799 17.1245H3.49225C3.46683 17.1245 3.44215 17.1274 3.41697 17.1284M2.66745 9.15906C2.64129 9.3788 2.62599 9.602 2.62599 9.82891C2.62599 12.9037 5.11247 15.3965 8.17893 15.3965C11.2459 15.3965 13.7319 12.9037 13.7319 9.82891C13.7319 9.602 13.7168 9.3788 13.6904 9.15906H2.66745ZM2.37129 7.17056C1.96013 7.17056 1.62695 7.50536 1.62695 7.91761C1.62695 8.33036 1.96013 8.66441 2.37129 8.66441H2.47051H13.8878H13.9866C14.3982 8.66441 14.7314 8.33036 14.7314 7.91761C14.7314 7.50536 14.3982 7.17056 13.9866 7.17056H13.8841C13.8797 7.00378 13.8688 6.83848 13.8508 6.67566C13.6608 4.98014 12.7333 3.50856 11.3962 2.59225V3.04929C11.3962 3.37543 11.1326 3.64045 10.8071 3.64045C10.4818 3.64045 10.2175 3.37568 10.2175 3.04929V1.97388C9.75966 1.79819 9.27396 1.67892 8.76828 1.62695V3.04929C8.76828 3.37543 8.5047 3.64045 8.17917 3.64045C7.8534 3.64045 7.58957 3.37568 7.58957 3.04929V1.62695C7.08364 1.67916 6.59794 1.79844 6.14013 1.97412V3.04929C6.14013 3.37543 5.87655 3.64045 5.55053 3.64045C5.22526 3.64045 4.96143 3.37568 4.96143 3.04929V2.5925C3.62453 3.50881 2.69682 4.98014 2.50728 6.67566C2.48926 6.83848 2.4784 7.00378 2.47396 7.17056H2.37129Z" stroke="#9C9C9C" stroke-width="1.36984"/>
</svg>
