<svg width="54" height="12" viewBox="0 0 54 12" fill="none" xmlns="http://www.w3.org/2000/svg">
<path d="M7.922 10.0173L7.41418 8.7002H3.16125L2.65344 10.0491C2.46301 10.5728 2.28845 10.9219 2.14563 11.1123C2.00281 11.3027 1.78064 11.3821 1.46326 11.3821C1.19348 11.3821 0.955442 11.2869 0.749143 11.0964C0.542845 10.906 0.447632 10.6838 0.447632 10.4299C0.447632 10.2871 0.463499 10.1443 0.511107 9.9856C0.558714 9.82691 0.638059 9.62061 0.749143 9.35083L3.43103 2.54297C3.51038 2.35254 3.60559 2.1145 3.7008 1.84473C3.81189 1.57495 3.92297 1.33691 4.04993 1.16235C4.17688 0.987793 4.33557 0.829102 4.526 0.718018C4.71643 0.606934 4.97034 0.543457 5.25598 0.543457C5.55749 0.543457 5.79553 0.606934 6.00183 0.718018C6.19226 0.829102 6.36682 0.971924 6.4779 1.14648C6.60486 1.32105 6.70007 1.51148 6.77942 1.71777C6.85877 1.92407 6.96985 2.19385 7.0968 2.5271L9.82629 9.28736C10.0485 9.79517 10.1437 10.176 10.1437 10.4141C10.1437 10.6521 10.0485 10.8743 9.84216 11.0806C9.63586 11.2869 9.39783 11.3821 9.11218 11.3821C8.95349 11.3821 8.7948 11.3503 8.68371 11.2869C8.55676 11.2234 8.46155 11.144 8.3822 11.0488C8.30286 10.9536 8.20764 10.7949 8.12829 10.5728C8.06482 10.3665 7.98547 10.176 7.922 10.0173ZM3.71667 7.11328H6.84289L5.25598 2.79688L3.71667 7.11328Z" fill="#3D3D3D"/>
<path d="M14.587 6.54206H13.8411V9.90631C13.8411 10.3506 13.7459 10.668 13.5555 10.8902C13.3651 11.0965 13.1111 11.2076 12.7938 11.2076C12.4605 11.2076 12.1907 11.0965 12.0003 10.8743C11.8099 10.6522 11.7147 10.3348 11.7147 9.90631V1.84479C11.7147 1.38458 11.8099 1.05133 12.0162 0.845032C12.2225 0.638733 12.5557 0.543518 13.0159 0.543518H16.4595C16.9356 0.543518 17.3482 0.559387 17.6815 0.606995C18.0147 0.654602 18.3162 0.733948 18.6019 0.860901C18.9351 1.00372 19.2208 1.19415 19.4747 1.44806C19.7286 1.70197 19.919 2.00348 20.046 2.33673C20.1729 2.66998 20.2364 3.03497 20.2364 3.41583C20.2364 4.19342 20.0142 4.82819 19.5699 5.28839C19.1256 5.7486 18.459 6.08185 17.5704 6.28815C17.9512 6.49445 18.3004 6.78009 18.6495 7.17682C18.9986 7.57355 19.3001 7.98615 19.5699 8.43048C19.8397 8.87482 20.046 9.27155 20.2047 9.62067C20.3475 9.96979 20.4268 10.2237 20.4268 10.3506C20.4268 10.4935 20.3792 10.6204 20.2999 10.7632C20.2047 10.9061 20.0936 11.0013 19.9349 11.0806C19.7762 11.16 19.6016 11.1917 19.4112 11.1917C19.1732 11.1917 18.9669 11.1282 18.8082 11.0172C18.6495 10.9061 18.5067 10.7632 18.3956 10.5887C18.2845 10.4141 18.1258 10.1602 17.9195 9.82697L17.0626 8.41461C16.7611 7.89093 16.4913 7.4942 16.2374 7.22443C15.9993 6.95465 15.7454 6.76422 15.5074 6.66901C15.2852 6.58966 14.9678 6.54206 14.587 6.54206ZM15.8089 2.1463H13.857V5.01862H15.7613C16.2691 5.01862 16.6976 4.97101 17.0467 4.89166C17.3958 4.79645 17.6656 4.65363 17.8402 4.44733C18.0306 4.24103 18.1099 3.93951 18.1099 3.57452C18.1099 3.28888 18.0306 3.03497 17.8878 2.81281C17.7449 2.59064 17.5386 2.43195 17.2689 2.32086C17.0308 2.19391 16.5389 2.1463 15.8089 2.1463Z" fill="#3D3D3D"/>
<path d="M30.995 7.9068C30.995 8.24005 30.9157 8.60504 30.7411 8.9859C30.5824 9.36676 30.3126 9.74762 29.9635 10.1285C29.6144 10.5093 29.1542 10.8109 28.6146 11.033C28.0592 11.2711 27.4244 11.3821 26.6945 11.3821C26.139 11.3821 25.6471 11.3345 25.1869 11.2235C24.7267 11.1124 24.33 10.9537 23.9491 10.7315C23.5841 10.5093 23.235 10.2237 22.9335 9.8587C22.6637 9.52545 22.4257 9.16046 22.2194 8.74786C22.0289 8.33527 21.8702 7.9068 21.775 7.4466C21.6798 6.98639 21.6322 6.49445 21.6322 5.97076C21.6322 5.1297 21.7592 4.36798 21.9972 3.70148C22.2352 3.03497 22.6002 2.46368 23.0446 1.98761C23.5048 1.51154 24.0443 1.14655 24.6473 0.908508C25.2662 0.654602 25.9169 0.543518 26.6151 0.543518C27.4562 0.543518 28.2179 0.718078 28.8844 1.05133C29.5509 1.38458 30.0587 1.81305 30.4078 2.30499C30.757 2.79694 30.9315 3.27301 30.9315 3.71735C30.9315 3.95538 30.8522 4.17755 30.6776 4.36798C30.5031 4.55841 30.2968 4.65363 30.0587 4.65363C29.7889 4.65363 29.5826 4.59015 29.4557 4.4632C29.3446 4.33624 29.1859 4.11407 29.0272 3.79669C28.7574 3.27301 28.4242 2.89215 28.0433 2.63824C27.6625 2.38434 27.2023 2.25739 26.6627 2.25739C25.7899 2.25739 25.0917 2.59064 24.5839 3.25714C24.0602 3.92365 23.8063 4.85992 23.8063 6.08185C23.8063 6.89118 23.9174 7.57355 24.1554 8.1131C24.3776 8.65265 24.7108 9.04938 25.1234 9.31915C25.536 9.58893 26.028 9.71588 26.5992 9.71588C27.2023 9.71588 27.726 9.55719 28.1386 9.25568C28.567 8.95416 28.8844 8.50983 29.0907 7.92267C29.1859 7.65289 29.297 7.41486 29.424 7.2403C29.5509 7.06574 29.7731 6.98639 30.0587 6.98639C30.3126 6.98639 30.5348 7.08161 30.7094 7.25617C30.9157 7.43073 30.995 7.65289 30.995 7.9068Z" fill="#3D3D3D"/>
<path d="M34.9788 1.82892V9.44611H39.2794C39.6285 9.44611 39.8824 9.52545 40.0728 9.70001C40.2632 9.87457 40.3426 10.0809 40.3426 10.3348C40.3426 10.5887 40.2474 10.795 40.0728 10.9537C39.8983 11.1124 39.6285 11.1917 39.2794 11.1917H34.1536C33.6934 11.1917 33.3602 11.0965 33.1539 10.8902C32.9476 10.6839 32.8524 10.3506 32.8524 9.89044V1.82892C32.8524 1.40045 32.9476 1.08307 33.138 0.860901C33.3284 0.638733 33.5823 0.543518 33.8997 0.543518C34.2171 0.543518 34.471 0.654602 34.6773 0.860901C34.8836 1.08307 34.9788 1.40045 34.9788 1.82892Z" fill="#3D3D3D"/>
<path d="M41.8339 10.0809V1.82892C41.8339 1.40045 41.9291 1.08307 42.1196 0.860901C42.31 0.638733 42.5639 0.543518 42.8813 0.543518C43.1987 0.543518 43.4526 0.654602 43.6589 0.860901C43.8493 1.0672 43.9604 1.40045 43.9604 1.82892V10.0809C43.9604 10.5093 43.8652 10.8426 43.6589 11.0489C43.4684 11.2711 43.1987 11.3663 42.8813 11.3663C42.5798 11.3663 42.3259 11.2552 42.1354 11.0489C41.9291 10.8426 41.8339 10.5093 41.8339 10.0809Z" fill="#3D3D3D"/>
<path d="M52.5785 2.19391H48.4049V4.87579H51.8961C52.2135 4.87579 52.4674 4.95514 52.6261 5.09796C52.7848 5.24079 52.8641 5.43121 52.8641 5.68512C52.8641 5.92316 52.7848 6.11359 52.6261 6.25641C52.4674 6.39923 52.2294 6.47858 51.912 6.47858H48.4208V9.92218C48.4208 10.3665 48.3256 10.6839 48.1193 10.8902C47.9288 11.0965 47.6749 11.2076 47.3575 11.2076C47.0402 11.2076 46.7863 11.0965 46.5958 10.8902C46.4054 10.668 46.2943 10.3507 46.2943 9.92218V1.84479C46.2943 1.54327 46.3419 1.28937 46.4371 1.09894C46.5323 0.908508 46.6752 0.765686 46.8656 0.670471C47.056 0.575256 47.3099 0.543518 47.6114 0.543518H52.6102C52.9435 0.543518 53.1974 0.622864 53.3719 0.765686C53.5306 0.908508 53.6259 1.11481 53.6259 1.35284C53.6259 1.60675 53.5465 1.79718 53.3719 1.95587C53.1815 2.11456 52.9276 2.19391 52.5785 2.19391Z" fill="#3D3D3D"/>
</svg>
