<svg width="54" height="12" viewBox="0 0 54 12" fill="none" xmlns="http://www.w3.org/2000/svg">
<path d="M8.1189 9.64136L7.61108 8.32422H3.35815L2.85034 9.6731C2.65991 10.1968 2.48535 10.5459 2.34253 10.7363C2.19971 10.9268 1.97754 11.0061 1.66016 11.0061C1.39038 11.0061 1.15234 10.9109 0.946043 10.7205C0.739744 10.53 0.644531 10.3079 0.644531 10.054C0.644531 9.91113 0.660399 9.76831 0.708006 9.60962C0.755614 9.45093 0.834959 9.24463 0.946043 8.97486L3.62793 2.16699C3.70727 1.97656 3.80249 1.73853 3.8977 1.46875C4.00879 1.19898 4.11987 0.960937 4.24682 0.786377C4.37378 0.611816 4.53247 0.453125 4.7229 0.342041C4.91333 0.230957 5.16723 0.16748 5.45288 0.16748C5.75439 0.16748 5.99243 0.230957 6.19873 0.342041C6.38916 0.453125 6.56372 0.595948 6.6748 0.770508C6.80176 0.945069 6.89697 1.1355 6.97632 1.3418C7.05566 1.5481 7.16675 1.81787 7.2937 2.15112L10.0232 8.91138C10.2454 9.41919 10.3406 9.80005 10.3406 10.0381C10.3406 10.2761 10.2454 10.4983 10.0391 10.7046C9.83276 10.9109 9.59473 11.0061 9.30908 11.0061C9.15039 11.0061 8.9917 10.9744 8.88061 10.9109C8.75366 10.8474 8.65845 10.7681 8.5791 10.6729C8.49976 10.5776 8.40454 10.4189 8.32519 10.1968C8.26172 9.99048 8.18237 9.80005 8.1189 9.64136ZM3.91357 6.73731H7.03979L5.45288 2.4209L3.91357 6.73731Z" fill="#B0B0B0"/>
<path d="M14.7839 6.16602H14.0381V9.53028C14.0381 9.97461 13.9429 10.292 13.7524 10.5142C13.562 10.7205 13.3081 10.8315 12.9907 10.8315C12.6575 10.8315 12.3877 10.7205 12.1973 10.4983C12.0068 10.2761 11.9116 9.95874 11.9116 9.53028V1.46875C11.9116 1.00854 12.0068 0.675293 12.2131 0.468994C12.4194 0.262695 12.7527 0.16748 13.2129 0.16748H16.6565C17.1326 0.16748 17.5452 0.18335 17.8784 0.230957C18.2117 0.278564 18.5132 0.35791 18.7988 0.484863C19.1321 0.627685 19.4177 0.818115 19.6716 1.07202C19.9255 1.32593 20.116 1.62744 20.2429 1.96069C20.3699 2.29395 20.4334 2.65894 20.4334 3.0398C20.4334 3.81738 20.2112 4.45215 19.7669 4.91235C19.3225 5.37256 18.656 5.70581 17.7673 5.91211C18.1482 6.11841 18.4973 6.40405 18.8464 6.80078C19.1956 7.19751 19.4971 7.61011 19.7669 8.05445C20.0366 8.49878 20.2429 8.89551 20.4016 9.24463C20.5444 9.59375 20.6238 9.84766 20.6238 9.97461C20.6238 10.1174 20.5762 10.2444 20.4968 10.3872C20.4016 10.53 20.2905 10.6252 20.1318 10.7046C19.9731 10.7839 19.7986 10.8157 19.6082 10.8157C19.3701 10.8157 19.1638 10.7522 19.0051 10.6411C18.8464 10.53 18.7036 10.3872 18.5925 10.2126C18.4815 10.0381 18.3228 9.78418 18.1165 9.45093L17.2595 8.03858C16.958 7.51489 16.6882 7.11817 16.4343 6.84839C16.1963 6.57861 15.9424 6.38819 15.7043 6.29297C15.4822 6.21362 15.1648 6.16602 14.7839 6.16602ZM16.0059 1.77026H14.054V4.64258H15.9583C16.4661 4.64258 16.8945 4.59497 17.2437 4.51563C17.5928 4.42041 17.8626 4.27759 18.0371 4.07129C18.2275 3.86499 18.3069 3.56348 18.3069 3.19849C18.3069 2.91284 18.2275 2.65894 18.0847 2.43677C17.9419 2.2146 17.7356 2.05591 17.4658 1.94482C17.2278 1.81787 16.7358 1.77026 16.0059 1.77026Z" fill="#B0B0B0"/>
<path d="M31.1919 7.53076C31.1919 7.86402 31.1126 8.22901 30.938 8.60987C30.7793 8.99072 30.5095 9.37158 30.1604 9.75244C29.8113 10.1333 29.3511 10.4348 28.8115 10.657C28.2561 10.895 27.6213 11.0061 26.8914 11.0061C26.3359 11.0061 25.844 10.9585 25.3838 10.8474C24.9236 10.7363 24.5269 10.5776 24.146 10.3555C23.781 10.1333 23.4319 9.84766 23.1304 9.48267C22.8606 9.14942 22.6226 8.78442 22.4163 8.37183C22.2258 7.95923 22.0671 7.53076 21.9719 7.07056C21.8767 6.61035 21.8291 6.11841 21.8291 5.59473C21.8291 4.75366 21.9561 3.99194 22.1941 3.32544C22.4321 2.65894 22.7971 2.08765 23.2415 1.61157C23.7017 1.1355 24.2412 0.770508 24.8442 0.532471C25.4631 0.278565 26.1138 0.16748 26.812 0.16748C27.6531 0.16748 28.4148 0.342041 29.0813 0.675293C29.7478 1.00854 30.2556 1.43701 30.6047 1.92895C30.9539 2.4209 31.1284 2.89697 31.1284 3.34131C31.1284 3.57935 31.0491 3.80151 30.8745 3.99194C30.7 4.18237 30.4937 4.27759 30.2556 4.27759C29.9858 4.27759 29.7795 4.21411 29.6526 4.08716C29.5415 3.96021 29.3828 3.73804 29.2241 3.42065C28.9543 2.89697 28.6211 2.51611 28.2402 2.26221C27.8594 2.0083 27.3992 1.88135 26.8596 1.88135C25.9868 1.88135 25.2886 2.2146 24.7808 2.8811C24.2571 3.54761 24.0032 4.48389 24.0032 5.70581C24.0032 6.51514 24.1143 7.19751 24.3523 7.73706C24.5745 8.27661 24.9077 8.67334 25.3203 8.94312C25.7329 9.21289 26.2249 9.33985 26.7961 9.33985C27.3992 9.33985 27.9229 9.18116 28.3355 8.87964C28.7639 8.57813 29.0813 8.13379 29.2876 7.54663C29.3828 7.27686 29.4939 7.03882 29.6209 6.86426C29.7478 6.6897 29.97 6.61035 30.2556 6.61035C30.5095 6.61035 30.7317 6.70557 30.9063 6.88013C31.1126 7.05469 31.1919 7.27686 31.1919 7.53076Z" fill="#B0B0B0"/>
<path d="M35.1755 1.45288V9.07007H39.4761C39.8252 9.07007 40.0791 9.14942 40.2695 9.32398C40.46 9.49854 40.5393 9.70484 40.5393 9.95874C40.5393 10.2126 40.4441 10.4189 40.2695 10.5776C40.095 10.7363 39.8252 10.8157 39.4761 10.8157H34.3503C33.8901 10.8157 33.5569 10.7205 33.3506 10.5142C33.1443 10.3079 33.0491 9.97461 33.0491 9.51441V1.45288C33.0491 1.02441 33.1443 0.707031 33.3347 0.484863C33.5251 0.262695 33.7791 0.16748 34.0964 0.16748C34.4138 0.16748 34.6677 0.278564 34.874 0.484863C35.0803 0.707031 35.1755 1.02441 35.1755 1.45288Z" fill="#B0B0B0"/>
<path d="M42.031 9.70483V1.45288C42.031 1.02441 42.1262 0.707031 42.3167 0.484863C42.5071 0.262695 42.761 0.16748 43.0784 0.16748C43.3958 0.16748 43.6497 0.278564 43.856 0.484863C44.0464 0.691162 44.1575 1.02441 44.1575 1.45288V9.70483C44.1575 10.1333 44.0623 10.4666 43.856 10.6729C43.6655 10.895 43.3958 10.9902 43.0784 10.9902C42.7769 10.9902 42.523 10.8792 42.3325 10.6729C42.1262 10.4666 42.031 10.1333 42.031 9.70483Z" fill="#B0B0B0"/>
<path d="M52.7754 1.81787H48.6018V4.49976H52.093C52.4104 4.49976 52.6643 4.5791 52.823 4.72192C52.9817 4.86475 53.061 5.05518 53.061 5.30908C53.061 5.54712 52.9817 5.73755 52.823 5.88037C52.6643 6.02319 52.4263 6.10254 52.1089 6.10254H48.6177V9.54615C48.6177 9.99048 48.5225 10.3079 48.3162 10.5142C48.1257 10.7205 47.8718 10.8315 47.5544 10.8315C47.2371 10.8315 46.9832 10.7205 46.7927 10.5142C46.6023 10.292 46.4912 9.97461 46.4912 9.54615V1.46875C46.4912 1.16724 46.5388 0.91333 46.634 0.7229C46.7292 0.532471 46.8721 0.389648 47.0625 0.294434C47.2529 0.199219 47.5068 0.16748 47.8083 0.16748H52.8071C53.1404 0.16748 53.3943 0.246826 53.5688 0.389648C53.7275 0.532471 53.8228 0.738769 53.8228 0.976806C53.8228 1.23071 53.7434 1.42114 53.5688 1.57983C53.3784 1.73853 53.1245 1.81787 52.7754 1.81787Z" fill="#B0B0B0"/>
</svg>
