<svg width="15" height="15" viewBox="0 0 15 15" fill="none" xmlns="http://www.w3.org/2000/svg">
<path d="M14.0211 1.46715C14.0211 2.26357 13.3714 2.93423 12.554 2.93424L7.83841 2.93424L3.35333 7.33548L7.83841 11.7367L12.554 11.7367C13.3505 11.7367 14.0211 12.3864 14.0211 13.2038C14.0211 14.0002 13.3714 14.6709 12.554 14.6709L7.46116 14.6709C6.93721 14.6709 6.45516 14.4613 6.07792 14.105L0.586832 8.71873C0.209582 8.34148 -2.98654e-07 7.83848 -3.20641e-07 7.33548C-3.43544e-07 6.81153 0.209582 6.32948 0.586832 5.95224L6.07791 0.565943C6.45516 0.209652 6.93721 7.02687e-05 7.46116 7.02458e-05L12.554 7.00231e-05C13.3505 6.99883e-05 14.0211 0.649778 14.0211 1.46715Z" fill="#9C9C9C"/>
</svg>
