<svg width="30" height="37" viewBox="0 0 30 37" fill="none" xmlns="http://www.w3.org/2000/svg">
<path d="M20.547 6.28042C21.217 5.50822 21.7279 4.61127 22.0502 3.64108C22.3726 2.67089 22.5002 1.64658 22.4256 0.626953C20.3687 0.79299 18.4593 1.7604 17.1088 3.32077C16.4622 4.06861 15.9721 4.93862 15.6677 5.87926C15.3633 6.81991 15.2507 7.81208 15.3366 8.79701C16.3399 8.80537 17.3318 8.58274 18.2353 8.14635C19.1388 7.70995 19.9298 7.07151 20.547 6.28042ZM25.0131 19.4659C25.025 18.1079 25.3827 16.7753 26.0524 15.5939C26.7222 14.4125 27.682 13.4213 28.8411 12.7137C28.1096 11.6596 27.1425 10.7905 26.0166 10.1752C24.8907 9.55999 23.6369 9.21553 22.3547 9.16918C19.59 8.88563 17.038 10.7819 15.567 10.7819C14.096 10.7819 12.0225 9.20463 9.71858 9.24008C8.21239 9.28969 6.74478 9.72883 5.45888 10.5147C4.17299 11.3005 3.11271 12.4062 2.38147 13.7239C-0.737683 19.1469 1.58396 27.2107 4.70312 31.5881C6.12091 33.7325 7.89316 36.1605 10.2325 36.0719C12.5719 35.9833 13.334 34.6187 16.0455 34.6187C18.757 34.6187 19.59 36.0719 21.8939 36.0187C24.1978 35.9656 25.8283 33.8211 27.317 31.6767C28.3716 30.1199 29.1953 28.4186 29.7627 26.6258C28.3581 26.0268 27.1598 25.0295 26.3157 23.7571C25.4717 22.4847 25.0188 20.9929 25.0131 19.4659Z" fill="white"/>
</svg>
