<svg width="32" height="34" viewBox="0 0 32 34" fill="none" xmlns="http://www.w3.org/2000/svg">
<path d="M17.4062 16.5528L1.19393 32.7651C0.418923 32.032 0 31.0266 0 29.9374V4.50878C0 3.39863 0.439869 2.39322 1.23582 1.63916L17.4062 16.5528Z" fill="#2196F3"/>
<path d="M31.4192 17.223C31.4192 18.6892 30.6233 19.9879 29.3037 20.721L24.6955 23.2764L18.9772 17.998L17.4062 16.5527L23.4597 10.4993L29.3037 13.725C30.6233 14.4581 31.4192 15.7567 31.4192 17.223Z" fill="#FFC107"/>
<path d="M17.4063 16.5527L1.23584 1.63909C1.4453 1.42963 1.7176 1.24112 1.9899 1.07355C3.30951 0.277595 4.90141 0.256649 6.26291 1.01071L23.4597 10.4993L17.4063 16.5527Z" fill="#4CAF50"/>
<path d="M24.6955 23.2767L6.26293 33.4356C5.6136 33.8126 4.88049 33.9802 4.16832 33.9802C3.41426 33.9802 2.6602 33.7916 1.98992 33.3727C1.69905 33.2061 1.43143 33.0019 1.19397 32.7653L17.4063 16.553L18.9772 17.9983L24.6955 23.2767Z" fill="#F44336"/>
</svg>
