<svg width="43" height="44" viewBox="0 0 43 44" fill="none" xmlns="http://www.w3.org/2000/svg">
<path d="M16.125 0.411987H0V16.6486H16.125V0.411987ZM13.4375 13.9425H2.6875V3.1181H13.4375V13.9425Z" fill="white"/>
<path d="M5.375 5.82422H10.75V11.2364H5.375V5.82422ZM0 43.7097H16.125V27.4731H0V43.7097ZM2.6875 30.1792H13.4375V41.0036H2.6875V30.1792Z" fill="white"/>
<path d="M5.375 32.8853H10.75V38.2975H5.375V32.8853ZM26.875 0.411987V16.6486H43V0.411987H26.875ZM40.3125 13.9425H29.5625V3.1181H40.3125V13.9425Z" fill="white"/>
<path d="M32.25 5.8242H37.625V11.2364H32.25V5.8242ZM5.375 19.3547H0V24.767H8.0625V22.0609H5.375V19.3547ZM18.8125 24.767H24.1875V30.1792H18.8125V24.767ZM8.0625 19.3547H13.4375V22.0609H8.0625V19.3547ZM24.1875 32.8853H18.8125V35.5914H21.5V38.2975H24.1875V35.5914V32.8853ZM16.125 19.3547V22.0609H13.4375V24.767H18.8125V19.3547H16.125ZM21.5 11.2364H24.1875V16.6486H21.5V11.2364ZM24.1875 22.0609V24.767H29.5625V19.3547H21.5V22.0609H24.1875ZM18.8125 16.6486H21.5V19.3547H18.8125V16.6486ZM24.1875 38.2975H29.5625V43.7097H24.1875V38.2975ZM18.8125 38.2975H21.5V43.7097H18.8125V38.2975ZM24.1875 30.1792H26.875V32.8853H24.1875V30.1792ZM24.1875 8.53031V3.1181H21.5V0.411987H18.8125V11.2364H21.5V8.53031H24.1875ZM32.25 38.2975H34.9375V43.7097H32.25V38.2975ZM32.25 32.8853H37.625V35.5914H32.25V32.8853ZM29.5625 35.5914H32.25V38.2975H29.5625V35.5914ZM26.875 32.8853H29.5625V35.5914H26.875V32.8853ZM37.625 27.4731V30.1792H40.3125V32.8853H43V27.4731H40.3125H37.625ZM40.3125 35.5914H37.625V43.7097H43V38.2975H40.3125V35.5914ZM26.875 27.4731V30.1792H34.9375V24.767H29.5625V27.4731H26.875ZM32.25 19.3547V22.0609H37.625V24.767H43V19.3547H37.625H32.25Z" fill="white"/>
</svg>
