<svg width="114" height="34" viewBox="0 0 114 34" fill="none" xmlns="http://www.w3.org/2000/svg">
<path d="M23.1668 24.3802C22.3284 24.3802 21.6223 23.6962 21.6223 22.8357V17.8714L16.989 13.1498L12.3556 17.8714V22.8357C12.3556 23.6741 11.6716 24.3802 10.8112 24.3802C9.97275 24.3802 9.26671 23.6962 9.26671 22.8357V17.4743C9.26671 16.9227 9.48735 16.4152 9.86243 16.0181L15.5328 10.2374C15.9299 9.84026 16.4594 9.61963 16.989 9.61963C17.5406 9.61963 18.048 9.84026 18.4452 10.2374L24.1155 16.0181C24.4906 16.4152 24.7112 16.9227 24.7112 17.4743V22.8357C24.7112 23.6741 24.0273 24.3802 23.1668 24.3802Z" fill="black"/>
<path d="M25.9468 34H8.05321C3.61843 34 0 30.3816 0 25.9468V8.05321C0 3.61843 3.61843 0 8.05321 0H25.9689C30.4036 0 34.0221 3.61843 34.0221 8.05321V25.9689C34 30.3816 30.3816 34 25.9468 34ZM8.05321 3.06684C5.31733 3.06684 3.0889 5.29526 3.0889 8.03115V25.9468C3.0889 28.6827 5.31733 30.9111 8.05321 30.9111H25.9689C28.7047 30.9111 30.9332 28.6827 30.9332 25.9468V8.05321C30.9332 5.31733 28.7047 3.0889 25.9689 3.0889H8.05321V3.06684Z" fill="black"/>
<path d="M49.621 23.4464L48.915 21.6151H43.002L42.2959 23.4905C42.0312 24.2186 41.7885 24.704 41.5899 24.9688C41.3913 25.2335 41.0824 25.3438 40.6412 25.3438C40.2661 25.3438 39.9351 25.2115 39.6483 24.9467C39.3615 24.6819 39.2291 24.3731 39.2291 24.02C39.2291 23.8215 39.2512 23.6229 39.3173 23.4023C39.3835 23.1816 39.4939 22.8948 39.6483 22.5197L43.377 13.0544C43.4874 12.7897 43.6197 12.4587 43.7521 12.0836C43.9066 11.7085 44.061 11.3776 44.2375 11.1349C44.414 10.8922 44.6347 10.6716 44.8994 10.5171C45.1642 10.3627 45.5172 10.2744 45.9144 10.2744C46.3336 10.2744 46.6645 10.3627 46.9514 10.5171C47.2161 10.6716 47.4588 10.8701 47.6133 11.1128C47.7898 11.3555 47.9222 11.6203 48.0325 11.9071C48.1428 12.1939 48.2972 12.569 48.4737 13.0324L52.2687 22.4315C52.5776 23.1375 52.7099 23.667 52.7099 23.998C52.7099 24.3289 52.5776 24.6378 52.2907 24.9246C52.0039 25.2115 51.673 25.3438 51.2758 25.3438C51.0552 25.3438 50.8345 25.2997 50.6801 25.2115C50.5036 25.1232 50.3712 25.0129 50.2609 24.8805C50.1506 24.7481 50.0182 24.5275 49.9079 24.2186C49.8196 23.9318 49.7093 23.667 49.621 23.4464ZM43.7742 19.4087H48.1207L45.9144 13.4074L43.7742 19.4087Z" fill="black"/>
<path d="M58.8877 18.6145H57.8507V23.2919C57.8507 23.9097 57.7183 24.351 57.4535 24.6599C57.1888 24.9467 56.8358 25.1012 56.3945 25.1012C55.9312 25.1012 55.5561 24.9467 55.2913 24.6378C55.0265 24.3289 54.8942 23.8877 54.8942 23.2919V12.0836C54.8942 11.4438 55.0265 10.9804 55.3134 10.6936C55.6002 10.4068 56.0635 10.2744 56.7034 10.2744H61.4912C62.1531 10.2744 62.7267 10.2965 63.1901 10.3627C63.6534 10.4289 64.0726 10.5392 64.4698 10.7157C64.9331 10.9143 65.3303 11.179 65.6833 11.532C66.0363 11.8851 66.301 12.3043 66.4776 12.7676C66.6541 13.2309 66.7423 13.7384 66.7423 14.2679C66.7423 15.349 66.4334 16.2316 65.8157 16.8714C65.1979 17.5113 64.2712 17.9746 63.0356 18.2614C63.5652 18.5483 64.0506 18.9454 64.536 19.497C65.0214 20.0486 65.4406 20.6222 65.8157 21.24C66.1907 21.8578 66.4776 22.4094 66.6982 22.8948C66.8968 23.3802 67.0071 23.7332 67.0071 23.9097C67.0071 24.1083 66.9409 24.2848 66.8306 24.4834C66.6982 24.6819 66.5437 24.8143 66.3231 24.9246C66.1025 25.035 65.8598 25.0791 65.595 25.0791C65.2641 25.0791 64.9772 24.9908 64.7566 24.8364C64.536 24.6819 64.3374 24.4834 64.1829 24.2407C64.0285 23.998 63.8079 23.645 63.521 23.1816L62.3296 21.218C61.9104 20.4899 61.5353 19.9383 61.1823 19.5632C60.8513 19.1881 60.4983 18.9233 60.1674 18.791C59.8585 18.6806 59.4172 18.6145 58.8877 18.6145ZM60.5866 12.5028H57.8728V16.4963H60.5204C61.2264 16.4963 61.8221 16.4302 62.3075 16.3198C62.7929 16.1875 63.168 15.9889 63.4107 15.7021C63.6755 15.4152 63.7858 14.996 63.7858 14.4886C63.7858 14.0914 63.6755 13.7384 63.4769 13.4295C63.2783 13.1206 62.9915 12.9 62.6164 12.7455C62.2855 12.569 61.6015 12.5028 60.5866 12.5028Z" fill="black"/>
<path d="M81.7016 20.5119C81.7016 20.9753 81.5912 21.4827 81.3485 22.0122C81.1279 22.5418 80.7528 23.0713 80.2674 23.6008C79.782 24.1303 79.1422 24.5496 78.392 24.8584C77.6198 25.1894 76.7373 25.3438 75.7223 25.3438C74.9501 25.3438 74.2661 25.2777 73.6263 25.1232C72.9864 24.9688 72.4348 24.7481 71.9053 24.4392C71.3979 24.1304 70.9125 23.7332 70.4933 23.2257C70.1182 22.7624 69.7872 22.2549 69.5004 21.6813C69.2356 21.1076 69.015 20.5119 68.8826 19.8721C68.7502 19.2322 68.684 18.5483 68.684 17.8202C68.684 16.6508 68.8605 15.5917 69.1915 14.6651C69.5225 13.7384 70.0299 12.9441 70.6477 12.2822C71.2875 11.6203 72.0377 11.1128 72.8761 10.7819C73.7366 10.4289 74.6412 10.2744 75.612 10.2744C76.7814 10.2744 77.8404 10.5171 78.7671 10.9804C79.6938 11.4438 80.3998 12.0395 80.8852 12.7235C81.3706 13.4074 81.6133 14.0694 81.6133 14.6871C81.6133 15.0181 81.503 15.327 81.2603 15.5917C81.0176 15.8565 80.7308 15.9889 80.3998 15.9889C80.0247 15.9889 79.7379 15.9006 79.5614 15.7241C79.4069 15.5476 79.1863 15.2387 78.9657 14.7975C78.5906 14.0694 78.1273 13.5398 77.5977 13.1868C77.0682 12.8338 76.4284 12.6573 75.6782 12.6573C74.4647 12.6573 73.4939 13.1206 72.7879 14.0473C72.0598 14.974 71.7067 16.2757 71.7067 17.9746C71.7067 19.0999 71.8612 20.0486 72.1921 20.7987C72.501 21.5489 72.9644 22.1005 73.538 22.4756C74.1117 22.8507 74.7957 23.0272 75.5899 23.0272C76.4284 23.0272 77.1565 22.8065 77.7301 22.3873C78.3258 21.9681 78.7671 21.3503 79.0539 20.534C79.1863 20.1589 79.3408 19.8279 79.5173 19.5853C79.6938 19.3426 80.0027 19.2322 80.3998 19.2322C80.7528 19.2322 81.0617 19.3646 81.3044 19.6073C81.5912 19.85 81.7016 20.1589 81.7016 20.5119Z" fill="black"/>
<path d="M87.2394 12.0616V22.6521H93.2186C93.704 22.6521 94.057 22.7624 94.3218 23.0051C94.5865 23.2478 94.6969 23.5346 94.6969 23.8877C94.6969 24.2407 94.5645 24.5275 94.3218 24.7481C94.0791 24.9688 93.704 25.0791 93.2186 25.0791H86.0921C85.4522 25.0791 84.9889 24.9467 84.7021 24.6599C84.4152 24.3731 84.2828 23.9097 84.2828 23.2699V12.0616C84.2828 11.4658 84.4152 11.0246 84.68 10.7157C84.9447 10.4068 85.2978 10.2744 85.739 10.2744C86.1803 10.2744 86.5333 10.4289 86.8202 10.7157C87.107 11.0246 87.2394 11.4658 87.2394 12.0616Z" fill="black"/>
<path d="M96.7708 23.5346V12.0616C96.7708 11.4658 96.9032 11.0246 97.168 10.7157C97.4328 10.4068 97.7858 10.2744 98.227 10.2744C98.6683 10.2744 99.0213 10.4289 99.3082 10.7157C99.5729 11.0025 99.7274 11.4658 99.7274 12.0616V23.5346C99.7274 24.1304 99.595 24.5937 99.3082 24.8805C99.0434 25.1894 98.6683 25.3218 98.227 25.3218C97.8078 25.3218 97.4548 25.1673 97.1901 24.8805C96.9032 24.5937 96.7708 24.1304 96.7708 23.5346Z" fill="black"/>
<path d="M111.708 12.569H105.905V16.2978H110.759C111.2 16.2978 111.553 16.4081 111.774 16.6067C111.995 16.8052 112.105 17.07 112.105 17.423C112.105 17.754 111.995 18.0187 111.774 18.2173C111.553 18.4159 111.223 18.5262 110.781 18.5262H105.927V23.314C105.927 23.9318 105.795 24.3731 105.508 24.6599C105.243 24.9467 104.89 25.1012 104.449 25.1012C104.008 25.1012 103.655 24.9467 103.39 24.6599C103.125 24.351 102.971 23.9097 102.971 23.314V12.0836C102.971 11.6644 103.037 11.3114 103.169 11.0466C103.302 10.7819 103.5 10.5833 103.765 10.4509C104.03 10.3185 104.383 10.2744 104.802 10.2744H111.752C112.215 10.2744 112.568 10.3847 112.811 10.5833C113.032 10.7819 113.164 11.0687 113.164 11.3997C113.164 11.7527 113.054 12.0174 112.811 12.2381C112.546 12.4587 112.193 12.569 111.708 12.569Z" fill="black"/>
</svg>
