<svg width="79" height="79" viewBox="0 0 79 79" fill="none" xmlns="http://www.w3.org/2000/svg">
<g clip-path="url(#clip0_1_1888)">
<path d="M29.625 0H0V29.625H29.625V0ZM24.6875 24.6875H4.9375V4.9375H24.6875V24.6875Z" fill="#585858"/>
<path d="M9.875 9.875H19.75V19.75H9.875V9.875ZM0 79H29.625V49.375H0V79ZM4.9375 54.3125H24.6875V74.0625H4.9375V54.3125Z" fill="#585858"/>
<path d="M9.875 59.25H19.75V69.125H9.875V59.25ZM49.375 0V29.625H79V0H49.375ZM74.0625 24.6875H54.3125V4.9375H74.0625V24.6875Z" fill="#585858"/>
<path d="M59.25 9.875H69.125V19.75H59.25V9.875ZM9.875 34.5625H0V44.4375H14.8125V39.5H9.875V34.5625ZM34.5625 44.4375H44.4375V54.3125H34.5625V44.4375ZM14.8125 34.5625H24.6875V39.5H14.8125V34.5625ZM44.4375 59.25H34.5625V64.1875H39.5V69.125H44.4375V64.1875V59.25ZM29.625 34.5625V39.5H24.6875V44.4375H34.5625V34.5625H29.625ZM39.5 19.75H44.4375V29.625H39.5V19.75ZM44.4375 39.5V44.4375H54.3125V34.5625H39.5V39.5H44.4375ZM34.5625 29.625H39.5V34.5625H34.5625V29.625ZM44.4375 69.125H54.3125V79H44.4375V69.125ZM34.5625 69.125H39.5V79H34.5625V69.125ZM44.4375 54.3125H49.375V59.25H44.4375V54.3125ZM44.4375 14.8125V4.9375H39.5V0H34.5625V19.75H39.5V14.8125H44.4375ZM59.25 69.125H64.1875V79H59.25V69.125ZM59.25 59.25H69.125V64.1875H59.25V59.25ZM54.3125 64.1875H59.25V69.125H54.3125V64.1875ZM49.375 59.25H54.3125V64.1875H49.375V59.25ZM69.125 49.375V54.3125H74.0625V59.25H79V49.375H74.0625H69.125ZM74.0625 64.1875H69.125V79H79V69.125H74.0625V64.1875ZM49.375 49.375V54.3125H64.1875V44.4375H54.3125V49.375H49.375ZM59.25 34.5625V39.5H69.125V44.4375H79V34.5625H69.125H59.25Z" fill="#585858"/>
</g>
<defs>
<clipPath id="clip0_1_1888">
<rect width="79" height="79" fill="white"/>
</clipPath>
</defs>
</svg>
