<svg width="47" height="48" viewBox="0 0 47 48" fill="none" xmlns="http://www.w3.org/2000/svg">
<path d="M44.5563 37.2193L40.7258 38.5118C39.6683 38.8643 38.8223 39.6868 38.4698 40.7678L37.1773 44.5983C36.0728 47.9118 31.4198 47.8413 30.3858 44.5278L26.0383 30.5453C25.1923 27.7723 27.7538 25.1873 30.5033 26.0568L44.5093 30.4043C47.7993 31.4383 47.8463 36.1148 44.5563 37.2193Z" fill="#A83D3D"/>
<path opacity="0.4" d="M22.325 44.65C25.2567 44.65 28.1598 44.0725 30.8684 42.9506C33.577 41.8286 36.0381 40.1842 38.1111 38.1111C40.1842 36.0381 41.8286 33.577 42.9506 30.8684C44.0725 28.1598 44.65 25.2567 44.65 22.325C44.65 19.3932 44.0725 16.4902 42.9506 13.7816C41.8286 11.073 40.1842 8.6119 38.1111 6.53883C36.0381 4.46577 33.577 2.82132 30.8684 1.69939C28.1598 0.577452 25.2567 -4.36866e-08 22.325 0C16.404 8.82291e-08 10.7256 2.35209 6.53883 6.53883C2.35209 10.7256 0 16.404 0 22.325C0 28.2459 2.35209 33.9244 6.53883 38.1111C10.7256 42.2979 16.404 44.65 22.325 44.65Z" fill="#A83D3D"/>
</svg>
