<svg width="70" height="69" viewBox="0 0 70 69" fill="none" xmlns="http://www.w3.org/2000/svg">
<path d="M34.7416 17.1678C28.4958 17.1678 23.4165 22.2471 23.4165 28.4781C23.4165 34.7239 28.4958 39.7884 34.7416 39.7884C40.9726 39.7884 46.0519 34.7239 46.0519 28.4781C46.0519 22.2471 40.9726 17.1678 34.7416 17.1678ZM34.7416 36.8354C30.12 36.8354 26.3696 33.0849 26.3696 28.4781C26.3696 23.8713 30.12 20.1209 34.7416 20.1209C39.3484 20.1209 43.0988 23.8713 43.0988 28.4781C43.0988 33.0849 39.3484 36.8354 34.7416 36.8354Z" fill="#A83D3D"/>
<path d="M43.0989 28.4781C43.0989 33.0849 39.3485 36.8354 34.7416 36.8354C30.1201 36.8354 26.3696 33.0849 26.3696 28.4781C26.3696 23.8713 30.1201 20.1209 34.7416 20.1209C39.3485 20.1209 43.0989 23.8713 43.0989 28.4781Z" fill="#F8C4C4"/>
<path d="M52.4601 68.9472H49.507V57.9101C49.507 49.8732 42.9674 43.3336 34.9306 43.3336C26.8938 43.3336 20.3542 49.8732 20.3542 57.9101V68.9472H17.4011V57.9101C17.4011 48.2446 25.2651 40.3805 34.9306 40.3805C44.5961 40.3805 52.4601 48.2446 52.4601 57.9101V68.9472ZM1.86635 34.6146L0 32.326L39.5891 0L52.4085 13.2461V1.22701H60.3788V21.4852L70 31.4903L67.8723 33.5382L57.4258 22.6709V4.1801H55.3615V20.5417L39.3558 4.00439L1.86635 34.6146Z" fill="#A83D3D"/>
</svg>
